<svg xmlns="http://www.w3.org/2000/svg" width="1028" height="1027.62" viewBox="0 0 1028 1027.62">
  <defs>
    <style>
      .cls-1 {
        fill: #394956;
        fill-rule: evenodd;
      }
    </style>
  </defs>
  <path id="Preenchimento_de_Cor_1" data-name="Preenchimento de Cor 1" class="cls-1" d="M500,32H749V204c0,20.539,4.94,56.159-3,71H500V32Zm281,0h74q-0.5,12-1,24c-8.466,11.037-61.552,8.641-72,1Q781.5,44.5,781,32Zm323,0c0.73,13.708,1.06,24.774-8,29-14.18,5.813-93.13,1.621-101-4l-1-2V32h110Zm142,0v93c-8.8,7.623-25.1,11.435-38,4-4.44-15.783-5.58-77.969-2-97h40Zm282,0V275H1350c-21.01,0-57.76,5.152-73-3V32h251ZM964,58l29,1c3.256,5.686,8.41,19.01,4,29-1.868,3.778-4.758,5.722-8,8H965l-8-8q0.5-11,1-22Zm177,0,29,1c1.33,1.666,2.67,3.334,4,5q-0.495,48.5-1,97l-6,7-25,1-3,2q0.495,13.5,1,27c13.32,3.124,24.52.68,33,7q0.495,31,1,62c7.51,4.186,23.62,2.742,33,6,2.67,9.259,1.97,26.339,6,33,20.72-.389,54.5-3.917,67,5V411l-6,5-97-1q-3.495-3-7-6c0.28-9.26.92-21.84-2-28-13.83.453-24.41-.076-32-5q-0.495-14-1-28l-6-4c-9.51-.346-18.38-0.038-24,3-1.82,11.974-.86,24.347-6,32-6.69,2.112-17.44,2.145-27,2l-9-10q0.495-28,1-56c6.69-14.214,19.31-4.667,34-11,4.63-15.931,1.12-19.693,8-33,11.73,0.42,22.59.386,29-4,1.84-8.431,1.55-21.248-2-27l-3-2-22,1c-1.33,1-2.67,2-4,3v24l-9,9-22-1q-4.995-4.5-10-9V241c-6.11-3.025-22.37-4.262-28,0h-2c-0.42,11.942-.49,23.438,4,30h25c1.67,2,3.33,4,5,6,0.28,9.5,1.02,22.627-2,29-1.33,1-2.67,2-4,3l-26,1c-0.33,1-.67,2-1,3q-1.005,30.5-2,61-4.005,3.5-8,7h-23l-6-8q-1-12.5-2-25c-7.98-5.034-21.186-1.488-30-5l-6-6c-0.509-14.627.556-23.287,6-31l26-1c2.467-1.508,3.364-2.761,5-5q-0.5-29-1-58l-5-4H968l-7,5q-0.5,13.5-1,27l-6,5H931l-9-9c-0.3-15.591-4.866-48.9,2-60l6-7c17.981,0.32,50.621,4.261,63-3,1.61-10.541.474-24.024,5-31,13.45,0.469,23.91.183,31-5V135c24.64-14.937,83.91,3,104-9,6.79-6.186,5.05-50.412,2-61ZM538,62l-2,1q0.5,84.992,1,170l172,1V62H538Zm778,0V234l171,1c0.67-.333,1.33-0.667,2-1V62H1316ZM574,92l104,2V200l-2,3c-17.851.295-102.515,3.18-108-4C571.693,180.076,562.793,99.994,574,92Zm375,0c5.282,1.765,7.275,3.254,11,6,9.7,46.344-12.989,26.834-34,38,0.271,17.973,4.393,49.086-2,63l-5,3c-14.423,5.344-50.078-6.6-61,3-5.775,6.866-2.293,22.6-10,33l-2,1c-15.318.655-23.473-.178-30-8q-0.5-13-1-26l-3-1-27-2-3-5c-4.831-17.824-4.055-84.874,1-101l5-3c13.452-.469,23.912-0.183,31,5q1,14.5,2,29c28.4,2.377,35.387.423,34,33l5,5,24-1c8.627-16.857-1.587-55.891,9-71Zm56,0,23,2c1.33,2,2.67,4,4,6,2.09,6.909,1.67,21.532-1,27-9.66,6.093-24.08,7.965-36,2-2.232-14.186-1.118-27.885,5-36Zm346,0,106,2c2.68,10.352,2.14,105-2,108-10.92,4.422-97.79,3.235-107-1q0.495-53.994,1-108C1349.67,92.667,1350.33,92.333,1351,92Zm-174,73c10.93-.351,24.47-0.93,31,3,3.97,12.9,2.51,27.8-5,35l-25-1c-3.88-1.713-5.25-3.161-7-7-2.72-6.022-1.32-21.327,1-26C1173.67,167.667,1175.33,166.333,1177,165ZM790,234c16.447-.575,21.766,1.59,30,8q-0.5,12-1,24l-8,9c-13.076.459-21.856-.416-29-5-1.225-10.453-2.006-25.264,2-33Zm70,0c14.319-.515,22.556.553,30,6,1.624,5.53,3.291,19.1,1,25l-9,10H860l-9-10V243Zm354,0c9.03-.415,21.38-1.237,26,3l6,6q-0.495,11.5-1,23c-3.24,7.708-19.03,13.674-31,8-11.52-4.994-9.61-24.633-6-36ZM823,271h26l5,7v26l-4,5H821l-5-6c-0.469-13.452-.183-23.912,5-31Zm71,0c11.977-.546,24.826-1.5,30,5h2c0.462,13.878.385,25.617-5,33-11.284.343-25.073,0.879-32-3q-0.5-14.5-1-29ZM507,305H634c3.7,2.675,5.915,3.56,8,8,3.243,9.96,1.895,26.248-5,30-9.988,4.241-120.066,3.154-137,0V307Zm940,0c7.39,2.126,8.36,5.351,12,11-2.44,11.594,2.22,21.838-7,27l-26,2q-2.505,4-5,8v57c-1.67,2-3.33,4-5,6-18.23-.271-49.86-4.494-64,2v61q-4.005,4-8,8c-12.1.406-23.07,0.163-30-4-8.29-26.416-2-70.439-2-101,0-9.986-2.52-28.681,2-35,5.08-10,19.06-5.6,30-7,1.67-1.666,3.33-3.334,5-5-1.88-11.6-1.01-22.116,4-29Zm-732,1c10.6-.229,23.383-0.431,31,2,3.355,6.99,3.985,21.384,2,31l-4,5c-12,.73-26.185.749-34-5q-0.5-1-1-2C708.484,322.513,709.414,313.53,715,306Zm71,0c7.91-.349,24.715-2.01,29,2,7.64,6.108,2.9,22.493,7,32,11.3,0.287,23.886-.158,32,5v30l-6,6c-20.814.392-53.244,3.607-66-5V311Zm709,0c11.64-.179,24.17.26,33,2v35c-11.33,1.219-24.5,2.318-35,0C1487.7,331.382,1487.89,315.5,1495,306ZM648,340c14.73-.759,25.552-0.739,30,9v23l-8,9H646c-7.256-8.4-10.172-26.357-3-38Zm816,0c13.47-.735,23.87-0.874,28,8,5.83,14.226,1.63,94.11-4,102h-2c-8.86,2.889-26.35,2.195-30-4-6.05-12.66-3.53-93.146,2-103ZM575,377l28,1,4,5c0.506,15.178-.068,25.172-6,33H574c-1.745-2.819-2.21-3.232-5-5V384Zm107,0c19.1-.315,51.35-4.1,65,3,2.157,7.482,2.774,21.173,1,30-6.74,8.266-26.041,4.255-35,10,0.472,13.235.082,23.059-5,30-10.822,1.168-22.633-.1-29,4-0.276,9.26-.921,21.84,2,28l26,2,6,6c-0.475,13.015.019,22.207,5,29h62l5,6c-0.271,17.973-4.393,49.086,2,63h25l4-2q-0.5-48.995-1-98c-30.249-2.29-89.315,7.337-106-10q0.5-11,1-22c2.041-4.408,5.224-6.459,9-9l131,1c5.158,7.833,3.7,26.887,9,35,13.015,0.475,22.207-.019,29-5-0.393-22.255-3.5-54.133,5-66,18.226,0.271,49.86,4.494,64-2V384l7-6h25c13.03,6.019,5.965,22.847,11,34,11.73,0.42,22.59.386,29-4-0.28-9.018-.83-21.051,2-27,1.67-1,3.33-2,5-3h24c2.33,1.666,4.67,3.334,7,5-0.32,18.362-4.05,50.113,3,63,12.06,1.849,24.24,1.027,32,6l3,29,3,1c30.92,11.666,77.13-9.676,102,9-0.1,11.091,1.91,25.66-5,30l-26,1c-8.13,3.053-6.36,23.568-2,31,17.15-.429,55.9-4.868,64,5,2.47,1.508,3.36,2.761,5,5q-0.495,11-1,22c-1.71,3.881-3.16,5.246-7,7-27.66,10.524-74.19-8.61-99,4,0.57,17.534-1.14,24.234-8,33h-1c-14.24.518-21.76-.489-29-6-1.96-8.917.31-21.174-4-29-9.96-1.651-27.39,1.247-32-6-10.32-16.241,6.49-78.255-3-100-16.49-1.677-23.65-.838-33-8,0.42-11.732.39-22.592-4-29l-3-1c-9.67,2.249-17.61.138-24,4,0.628,18.2-1.011,24.446-9,33-7.705.332-20.564,1.364-25-2-12.142-6.543-1.638-28.544-14-35-10.836,2.616-16.97.058-24,5q-0.5,31-1,62c-8.19,4.6-20.64,3.89-33,6v64l3,1c14.435,5.26,19.564-.6,31,8q-0.5,12.5-1,25l-7,8c-8.144-.374-22.62-1.894-26,3v27c9.15,1.967,23.5,1.534,30-2,0.316-13.529.277-23.431,7-32,10.276,0.356,21.984.635,28-3-0.513-14.72.277-23.466,6-31,7.793-2.192,23.512-1.447,30-5,4.9-29.2-7.838-81.73,7-102,0.67-.333,1.33-0.667,2-1l24,1q3.495,3,7,6-0.495,65.994-1,132c-9.55,12.048-23.91,1.234-33,9-2.681,5.377-2.745,24.835,2,28h62c1.82-13.062-2.59-27.6,7-33l26-1c9.8,12.034,5.79,18.193,9,34h23q5.505,4.5,11,9c0.47,13.235.08,23.059-5,30l-29,3q-1.005,13.5-2,27-3.495,3.5-7,7c-22.05.419-54.24,3.462-67-6q-0.495-14-1-28c-8.81-2.168-22.47-3.074-30,1,0.723,14.377,1.561,27.507-8,32-9.475,3.469-22.026.543-29,5-0.36,18.552-3.8,50.294,4,62,17.665-.668,25.306.208,33,9q0.5,13,1,26l3,1,22,1c1.67-1.667,3.33-3.333,5-5-0.35-10.61-.59-22.618,3-29,5.46-2.173,19.15-5.449,27-2,3.88,1.713,5.25,3.161,7,7,3.85,10.567.73,21.606,6,29l28,1c5.08,9.749,8.84,49.953,3,64q-3.495,4-7,8c-22.05.419-54.24,3.462-67-6,0.35-10.385.49-21.8-3-28-23.81-3.869-54.542,3.484-69-9q-0.5-13-1-26c-22.3.42-55.009,3.521-68-6V809c7.932-10.445,21-4.373,34-10q0.5-11,1-22l-4-7c-9.018-.277-21.051-0.826-27,2q-0.5,13.5-1,27l-8,6c-11.456,3.757-99.521-1.446-101-4q-1-32-2-64c-5.275-1.421-23.918-.289-28-4l-7-6V703l8-8c10.385,0.349,21.8.5,28-3,1.7-14.606,3.043-53.425-3-63l-63,1q-0.5,1.5-1,3c-3.246,7.128-.707,21.377,2,26,11.972,1.162,24.771.76,32,6v26c-8.568,17.326-50.422,1.782-69,11-0.354,10.492-.733,22.812,3,29,11.124,1.775,55.061-2.285,61,3,2.584,1.721,3.407,2.111,5,5v24c-1.65,3.655-2.389,4.31-6,6H608c-9.279-12.877-7.759-60.368,1-72l28-3c4.85-16.761-3.309-50.644,5-65,2.243-1.407,2.509-1.971,4-4h25l4-5c-0.347-10.61-.59-22.618,3-29,17.956-4.226,45.641.49,65-3q0.5-1.5,1-3c3.022-6.876.714-21.3-1-27l-2-1c-20.627.392-53.5,3.738-66-5,0.347-10.61.59-22.618-3-29-7.571-1.621-21.924-1.937-28,1-1.712,10.962-1,24.394-5,32-10.7,1.047-25.176.386-32,5q-0.5,1.5-1,3,0.5,11,1,22l3,1c14.532,7.751,32.295-5.681,33,17q-0.5,8-1,16l-7,9c-17.973-.271-49.086-4.393-63,2,0.51,14.951-.172,24.319-6,32-12.36.412-25.128,0.684-32-4-3.45-25.379-6.337-125.025,4-140,14.622,0.406,57.71,5.049,64-4,3.243-9.2-1.475-22.233,5-28,4.716-6.413,24.12-3.164,31-7,3.516-21.506-3.4-53.723,7-68,11.942,0.417,23.438.485,30-4C674.36,393.19,673.828,383.085,682,377ZM503,412c22.442-.416,55.947-3.673,69,6,0.465,13.666.284,24.765-5,32-35.518,1.935-25.624-1.807-31,31l-7,6c-10.508.179-21.2-.45-29-2V413Zm603,0c15.18-.506,25.17.068,33,6,0.47,13.666.28,24.765-5,32-9.9,1.072-22.37,1.06-31-1C1097.46,438.121,1097.99,419.821,1106,412ZM575,447c13.452-.469,23.912-0.183,31,5v29l-6,6c-13.479.465-23.755,0.01-31-5V453Zm638,0,27,1c4.12,5.406,9.87,19.108,5,30-2.37,5.075-6.09,6.624-10,10l-21-2c-4.18-2.142-6.18-4.464-8-9q0.495-12,1-24Zm37,36,25,1c7.19,6.266,4.68,27.3,10,35,10.49-.354,22.81-0.733,29,3,1.31,5.976.6,23.453,3,27,0.67,1.333,1.33,2.667,2,4l27-1,3-4c-2.41-17.433-2.94-46.209,1-62,15.45-6.776,82.01-5.76,102-2,12.48,10.009,2.59,44.061,7,62-5.07,11.727-20.46,13.713-37,10-4.04-7.884-3.06-21.785-5-33-8.62-2.605-24.01-1.275-30,2q-0.495,48.995-1,98l-6,6-25-1c-3.65-1.65-4.31-2.389-6-6q-0.495-12-1-24c-1.67-1.667-3.33-3.333-5-5l-61-1c-6.22-8.632-3.87-26.642-9-35-14.72.513-23.47-.277-31-6V489Q1246.005,486,1250,483ZM928,519c8.48-.326,23.968-1.782,29,2l4,3c0.625,24.2,5.849,62.119-11,70l-19-1-9-8C921.589,562.233,919.513,532.87,928,519Zm600,72c-8.73.6-26.97,0.669-35,5q0.495,12,1,24l3,5c11.07-.179,22.69.357,31,2V768c-7.14,1.389-22.85,4.454-31,1-3.88-1.713-5.25-3.161-7-7q-0.495-30-1-60c-6.36-3.079-18.16-3.851-27-2-1.33,1-2.67,2-4,3v59q-4.005,4-8,8l-25-1q-3.495-3-7-6-0.495-30-1-60c-1.39-1.923-.1-0.6-2-2-11.1-6.572-21.05-.041-32-8-0.51-15.178.07-25.172,6-33,17.36-.261,53.51,4.019,66-5q-0.495-11.5-1-23l-3-3-27-1c-5.83-7.756-6.39-17.062-6-32,10.43-8.145,25.42-4.128,36-11,1.81-14.394-.29-22.883,8-32,22.26-.191,48.27-0.18,66,3v35Zm-107,468h-36c-0.02-17.17,2.96-62.394-5-76l-133-1a15.789,15.789,0,0,0-5-5c0.36-19.174,4.12-52.8-4-65l-59-1c-1.67,1.667-3.33,3.333-5,5-0.28,8.777-.73,20.26,2,26l31,4c5.69,14.339,2.43,27.955-5,37-21.16-.369-91.11-4.487-99,6,3.24,10.581,0,21.9-4,28-14.3.46-27.32,0.59-35-5-0.13-8.19.88-21.268-2-29-15.18.506-25.17-.068-33-6-0.47-13.666-.28-24.765,5-32,19.8-3.237,52.44,3.616,66-6-0.58-17.115-.07-21.9,7-31,7.74-1.221,21.79-.113,28-3,0.64-10.683.48-25.336,5-32l62-1c1.92-1.392.6-.1,2-2,2.64-3.874,3.45-18.742,1-24-0.67-1.333-1.33-2.667-2-4l-61-1-6-5c-0.65-9.111-1.37-25.384,2-32,16.47-5.7,50.33,2.522,67-5,1.3-8.689,1.11-20.648-1-28-12.14-2.85-25.03-.287-33-6-4.26-25.121,6.66-82.541-4-101-11.76-1.781-23.69-.72-31-6V630l6-5,63,1c1.33,2,2.67,4,4,6,7,27.939-8.65,75.438,4,99h60c1.33-1.667,2.67-3.333,4-5V701c6.11-4.483,9.36-6.078,21-6,29.74,0.2,8.12,26.375,23,36,19.65,7.358,51.02-4.532,66,6-0.28,11.553-2.19,59.239,3,63,10.85,3.977,23.14,1.116,31,6q0.495,13.5,1,27c1.67,1.667,3.33,3.333,5,5,11.63-.556,23.02-1.282,28,5,5.58,4.682,2.12,22.231,6,30,21.66-.191,48.66-1.965,67,2v35c-10.53.5-29.25-.967-34,6-5.81,15.912.53,19.542-9,32l-24,1-3,2c0.24,18.53,3.73,50.26-2,62-8.46,3.43-26.87,3.94-34,9-0.33.67-.67,1.33-1,2v35ZM1282,625c11.28-.343,25.07-0.879,32,3,3.22,11.675,2.54,26.928-3,35-14.09.459-26.47,0.487-34-5V631C1278.67,629,1280.33,627,1282,625Zm-459,4-3,3c-0.277,9.018-.826,21.051,2,27h26l3-2c0.276-9.26.921-21.84-2-28H823ZM507,659l23,1,7,8c0.332,7.705,1.364,20.564-2,25l-5,6-30-1V661Zm71,0c10.5,0.817,23.759-.6,28,7,5.646,12.648-1.343,27.117-6,33h-2c-6.386,1.31-19.115.45-25-1l-4-6V667Zm247,40-5,4c-0.357,7.23-1.606,21.188,2,25l4,4c9.482,0.352,18.5.121,24-3V703c-1.392-1.923-.1-0.6-2-2C843.4,698.047,832.658,698.742,825,699Zm72,0-5,3v26l4,3h21l6-5c-0.823-7.435-.024-20.4-2-25C914.793,699.281,905.9,698.882,897,699ZM537,732c14.3-.455,27.323-0.588,35,5,0.506,15.178-.068,25.172-6,33-11.059.345-24.256,0.782-31-3C531.863,756.6,532.224,739.9,537,732Zm569,0c13.88-.462,25.62-0.385,33,5,0.51,15.178-.07,25.172-6,33h-26C1097.71,758.657,1097.47,744.131,1106,732Zm-35,34c16.16-.545,23.85.686,32,7,0.33,0.667.67,1.333,1,2,0.61,14.824.02,23.221-7,30-8.45.314-21.78,1.354-27-2-3.41-1.863-4.66-2.848-6-7C1061.27,783.723,1064.11,772.3,1071,766Zm390,0c16.08-.547,23.86.73,32,7,0.42,22.246,3.57,55.094-6,68h-24C1446.55,833.441,1452.3,777.327,1461,766Zm-213,4c-5.33,11.572-4.93,87.481-1,102,19.16,2.646,86.37,5.4,100-2,0.67-1,1.33-2,2-3-3.09-26.455,6.59-79.956-5-97h-96ZM500,801H677c20.335,0,57.546-5.292,72,3v255H500V801Zm785,0c12.06-.644,24.75-1.558,29,6,3.31,5.7,2.55,20.776,1,28q-3.495,3.5-7,7l-23-1c-11.41-4.857-11.66-26.5-5-37C1281.67,803,1283.33,802,1285,801ZM538,842l-2,1q0.5,63.493,1,127c0,11.326-3.051,38.84,2,43q21.5,0.5,43,1c26.332,0,110.7,5.87,128-2v-1q-0.5-84.492-1-169H538Zm31,31c15.518-.21,105.395-2.048,109,3,4.832,11.879,2.594,98.6-2,107l-107-1V873Zm320,186H854q-0.5-1.5-1-3c1.025-4.51-.85-66.206-4-73-10.492-.354-22.812-0.733-29,3,0.075,24.86-1.587,50.94-2,73H782V913l7-6c14.852-.76,25.52-0.834,30,9,2.231,6.3-1.14,20.418,3,25,3.478,3.4,17.93,4.888,24,2l5-3c0.349-10.385.5-21.8-3-28-13.182-2-24-1.065-32-7q0.5-13,1-26l5-6c22.442-.416,55.947-3.673,69,6q0.5,13.5,1,27h30c-0.512-14.988.2-25.157,6-33,15.178-.506,25.172.068,33,6,0.388,17.512,5.28,61.339-6,68l-26,2-3,2c0.39,20.519,3.811,53.65-5,66-9.671-.25-21.243-0.51-28,2Zm503-183c-1.67,1.333-3.33,2.667-5,4-0.26,11.106-2.45,56.048,2,61,3.48,3.4,17.93,4.888,24,2,1.67-1,3.33-2,5-3,0.32-18.593,4.15-50.916-3-64h-23Zm-390,31c17.15-.71,24.28.644,31,10q-0.495,11-1,22-4.005,4.5-8,9l-22-1c-3.881-1.713-5.246-3.161-7-7V914C996.907,910.237,999.109,909.549,1002,907Zm284,4-6,5c-0.28,8.777-.73,20.26,2,26,15.6,4.8,41.9,2.146,61,2,1.67-1.333,3.33-2.667,5-4,0.5-12.322.79-21.312-5-29h-57ZM966,944c14.506-.716,26.135-1.145,31,8,5.17,10.955.1,26.779-7,30H965c-3.881-1.713-5.246-3.161-7-7V950Zm531,0c11.18-.173,22.5.468,31,2v70c-13.23,2.08-30.03,1.81-38-4V951Q1493.5,947.5,1497,944Zm-284,35c13.8-.667,25.92-1.3,31,7,2.64,3.874,3.45,18.74,1,24-1.67,2.33-3.33,4.67-5,7q-14.505-.5-29-1c-6.75-4.55-6.64-19.548-5-29Q1209.495,983,1213,979Zm-182,80H995c-0.374-13.68-3.57-32.94,2-43C1041.04,1000.59,1031.73,1032.83,1031,1059Zm177,0h-35v-2c-4.4-12.69-3.93-32.75,4-43h26c1.67,1.33,3.33,2.67,5,4C1210.54,1031.14,1208.31,1044.98,1208,1059Zm76-45q30.99,0.5,62,1c8.91,11.83,4.25,30.48,3,44h-70v-2c-2.48-7.44-4.35-24.1-2-36Zm207,45c-10.95.39-30,2.2-36-3,3.11-15.24-2.87-29.99,6-42,7.71-.33,20.56-1.36,25,2q3.495,3,7,6Q1492,1040.495,1491,1059Z" transform="translate(-500 -32)"/>
</svg>
