<svg xmlns="http://www.w3.org/2000/svg" width="4261.906" height="4262.064" viewBox="0 0 4261.906 4262.064">
  <defs>
    <style>
      .cls-1 {
        fill: #394956;
        fill-rule: evenodd;
      }
    </style>
  </defs>
  <path id="Preenchimento_de_Cor_1" data-name="Preenchimento de Cor 1" class="cls-1" d="M28,16H1136c19.36,0,64.53-5.931,73,6,9.04,12.615,3,52.817,3,74V1137c0,24.75,4.64,58.25-5,73-25.29,6.68-63.95,2-93,2H99c-16.393,0-68.5,3.86-77-3-11.382-8.11-6-48.43-6-67V88c0-16.964-5.323-54.25,3-65C21.324,18.459,23.748,18.463,28,16Zm1549,0h335c25.89,0,116.09-5.254,131,3,48.13,26.643-11.6,154.813,51,168,9.13,1.924,105.17-.048,109-2,7.98-4.068,22.84-19.333,25-29,7.5-33.486-11.06-100.1,4-122q10.005-8.5,20-17c11.52-3.735,119.9-2.791,129,1,8.11,3.38,19.99,17.465,22,27,7.75,36.8-13.23,99.5,7,124,19.18,23.225,51.35,17,93,17,18.89,0,45.9-3.173,55,7,22.37,25,15,65.629,15,111V569c0,20.542,4.34,101.684-2,113-12.61,22.528-40.42,20-76,20H2320c-40.86,0-77.96-2.96-87,28v51c0,41.38-2.18,69.4,24,84,14.3,7.975,52.03,2,71,2l223,1,21,21q0.495,86.491,1,173c0,25.46,6.26,120.35-4,133-13.22,16.31-27.35,17-58,17-47.06,0-102.31,9.13-113-28v-28c0.03-46.97,7.8-88-20-109-8.37-6.33-97.7-9.7-116-5-8.37,2.15-20.36,14.53-25,21-7.28,10.15-4,36.42-4,53,0,41.87-3.84,81.69,28,91h28c43.93-.01,92.69-7.17,110,20,6.15,9.65,8.44,115.91,3,132l-18,21c-12.76,7.19-116,2-140,2H2123c-15.3,0-38.86,2.89-48-4-26.18-19.75-17-80.03-17-126V731c-2.61-8.884-17.83-24.517-26-28l-51-1h-60c-38.92,10.57-28.01,75.358-28,124v265c0,22.44,5.61,87.13-3,101-4.13,6.64-15.43,17.98-24,20q-63.495-.495-127-1c-35.64-14.29-16.49-81.41-22-123-1.32-9.96,2.17-16.73-3-24-34.67-48.75-135.64,4.13-164-41-6.86-10.91-3-38.87-3-55,0-39.585-6.92-89.169,22-100,30.26-11.335,103.87,11.647,127-5l21-23V636q0.495-36.5,1-73c-11.64-56.395-97.16-16.781-147-32-31.11-9.5-24-59.526-24-100,0-17.506-3.42-44.821,4-56,13.86-20.881,40.9-18,76-18h173c42.93,0,80.47,2.428,88-32V273c0-39.972.87-69.89-27-81H1644c-22.1,0-63.31,5.787-78-4-5.73-3.814-15.9-14.826-18-22-3.68-12.577-3.06-117.338,1-127C1553.83,27.5,1565.58,21.51,1577,16Zm1191,0c26.75-.414,111.65-6.44,127,4,5.99,4.071,15.85,15.358,18,23,2.8,9.947,1.86,117.6-1,125q-8.505,10-17,20c-11.1,7.456-38.55,4-56,4-40.46,0-80.76,5.367-97-19-5.72-8.591-8.05-122.7-2-135C2745.33,27.159,2756.58,21.384,2768,16Zm322,0H4190c17.94,0,70.16-4.008,79,4,11.12,8.141,5,48.6,5,68V1137c0,24.75,4.64,58.25-5,73-25.29,6.68-63.95,2-93,2H3161c-16.39,0-68.5,3.86-77-3-11.47-8.18-6-49.29-6-68V95c0-23.973-4.22-60.163,5-76C3085.33,18,3087.67,17,3090,16ZM1020,190c-12.21,5.027-35.319,2-51,2H251c-20.463-.007-40.172-3.379-56,2-5.205,11.645-2,32.161-2,49V987c0,16.87-5.545,43.04,6,49q322.467,0.495,645,1H988c13.44,0,42.08,5.05,48-3q0.495-418.957,1-838C1031.89,192.224,1029.51,190.037,1020,190Zm3062,0c-12.21,5.027-35.32,2-51,2H3313c-20.46-.007-40.17-3.379-56,2-5.2,11.645-2,32.161-2,49V987c0,16.87-5.54,43.04,6,49q322.47,0.495,645,1h144c13.44,0,42.08,5.05,48-3q0.495-418.957,1-838C4093.89,192.224,4091.51,190.037,4082,190ZM366,357H731c32.161,0,119.573-7.613,139,5,8.039,32.657,2,86.384,2,126V749c0,24.254,4.56,113.508-6,120-10.712,8.644-102.788,3-125,3H486c-38.777,0-89.184,6.39-124-2-11.186-17.03-5-80.914-5-111V474C357,442.192,349.766,369.537,366,357Zm2398,0c25.57-.376,118.83-6.154,132,4q7.995,9.5,16,19c2.83,7.4,3.82,115.179,1,125-2.31,8.052-11.79,18.627-18,23-11.06,7.788-40.36,4-58,4-41.43,0-83.29,5.963-97-22-5.27-10.748-5.69-115.323-1-129C2742.65,370.349,2754.84,362.631,2764,357Zm664,0h365c32.16,0,119.57-7.613,139,5,8.04,32.657,2,86.384,2,126V749c0,24.254,4.56,113.508-6,120-10.71,8.644-102.79,3-125,3H3548c-38.78,0-89.18,6.39-124-2-11.19-17.03-5-80.914-5-111V474C3419,442.192,3411.77,369.537,3428,357Zm-1332,4c-12.54,5.677-26.73,13.7-32,26q-0.495,56-1,112c9.77,31.661,48.88,28,91,28,13.9,0,38.99,3.65,49-2q12-12.5,24-25V388q-12-12.5-24-25ZM1404,527c46.45-.507,128.92-11.41,146,19,8.63,15.355,2,53.932,2,76V795c0,34.372,3.81,62.593-19,75-12.46,6.779-43.36,2-60,2-21.41,0-64.26,6.044-78-4q-8.505-10.5-17-21-0.495-87.49-1-175c0-27.29-5.93-103.8,2-123C1383.15,538.96,1394.64,532.262,1404,527ZM2594,697h222c20.69,0,67.45-6.57,80,4,22.55,18.987,17,54.488,17,96,0,17.167,4.19,38.539-1,52-10.07,26.138-42.39,23-79,23H2651c-37.04,0-65.49,3.2-80-19-5.01-7.671-6.14-125.891-1-136C2574.19,708.774,2585.6,701.533,2594,697ZM1405,1037c46.89-.71,124.6-10.46,144,18,5.01,7.36,7.02,117.21,3,132-1.8,6.61-13.51,19.94-19,23-4.91,2.74-117.42,4.81-129,2-8.56-2.08-21.84-14.63-25-22-5.47-12.76-5.55-118.36,0-131C1383.37,1049.04,1395.29,1042.15,1405,1037Zm1361,0c22.99-.2,116.42-4.31,128,3q9,10.005,18,20,0.495,112.485,1,225c0,22.61,5.81,56.33-1,74-19.11,49.61-115.23,2.02-151,30-25.53,19.97-18.69,69.37-18,114,0.17,10.66,2.09,22.21-3,30-17.46,26.73-69.51,19-113,19-10.91,0-24.23-1.31-31,3-31.46,20.02-23,63.5-23,113q-0.495,16.005-1,32c-10.91,29.2-59.12,23-99,23-15.4,0-45.02,3.86-56-3-22.37-13.96-19-44.37-19-81V1403c8.38-33.72,70.42-29,115-26h27c56.94-16.92,1.68-138.64,46-167,6.95-4.45,21.08-3,32-3,49.04,0,94.59,8.57,116-21,14.52-20.06-2.37-89.71,4-120C2741.15,1051.03,2753.99,1043.54,2766,1037ZM1576,1207c47.88-.24,134.1-12.77,146,24q0.495,16.5,1,33c-0.01,49.86-8.15,91.51,23,111,7.06,4.42,17.14,2.01,28,2,43.83-.03,97.17-7.63,115,19,4.97,7.42,4,20.67,4,33,0,44.88-7.54,92.06,18,112,23.7,18.5,113.07-8.28,135,11,39.67,34.88-11.71,153.43,48,166q108.99-.495,218-1c37.6,0,73.05-3.62,88,19,9.22,13.95,3,55.74,3,76v171c0,34.7,2.43,62.18-18,76-7.56,5.11-21.47,4-34,4-47.65,0-107.1-9.17-118,28v225c0,36.17,4.43,73.44-20,85-14.92,7.06-89.78,2-113,2H1751c-61.81,18.18,4.67,156.66-54,170q-63.99-.495-128-1c-5.78-2.32-19.18-16.74-21-23-12.39-42.59,14.27-106.68-12-133-31.65-31.71-137.47,9.72-157-34-5.62-12.57-2-37.81-2-54,0-39.51-6.92-88.18,22-99q16.005-.495,32-1c49.65,0.01,95.12,8.66,114-24,3.55-6.15,2.94-24.39,2-31-5.8-40.6-3.45-97.29,19-112,6.84-4.48,20.99-3,32-3,49.16,0,93.22,8.31,115-21,15.83-21.3-4.66-91.47,5-125q7.005-9,14-18c7.73-9.1,31.53-6,48-6,47.81,0.01,99.44,7.16,108-32q-0.495-53.49-1-107c-3.24-7.63-18.28-22.92-26-26h-33c-41.58,6.42-93.96,2.5-108-20-4.39-7.04-3-21.1-3-32,0-49.29,8.7-94.98-21-115-7.43-5.01-20.5-4-33-4-44.39,0-104.62,9.78-115-25q-0.495-38.49-1-77V1294c0-19.15-4.83-50.85,2-66C1553.5,1218.02,1565.48,1211.75,1576,1207ZM46,1377H259c19.7,0,70.679-4.57,83,3q9.5,10.995,19,22v127c-18.8,54.98-157.3-11.97-170,55q0.5,53.49,1,107c3.792,9.21,20.264,24.76,31,27,24.667,5.14,102.45-9.2,120,2q9,10.5,18,21c5.027,14.79,2.66,126.57-3,134-32.34,42.46-133.24-7.98-164,41-4.885,7.78-3.574,25.78-2,36,2.711,17.6,3.333,75.14-2,88-3.79,9.14-17.027,20.87-28,23-19.735,3.84-121.263,1.93-129-5-24.568-22-17-79.99-17-126V1602l1-200C21.292,1389.42,34.147,1382.72,46,1377Zm851,0h341c26.4,0,111.24-6.54,126,4,6.13,4.38,15.75,14.98,18,23,2.81,10.02,1.87,117.55-1,125-10.77,27.91-47.31,23-86,23H1072c-38.8,9.6-30,67.85-30,116q-0.495,16.005-1,32c-10.91,29.2-59.121,23-99,23-15.4,0-45.018,3.85-56-3-23.907-14.92-19-52.2-19-91q0.5-113.985,1-228C872.5,1388.67,885.129,1382.65,897,1377Zm2552,0h223c39.53,0,73.82-4.25,89,20,4.41,7.04,3,20.93,3,32,0,50.04-8.79,95.75,23,116,7.09,4.52,17.35,2.01,28,2,44.18-.05,102.98-8.89,117,22,7.63,16.81,2,52.91,2,74v170c0,34.82,2.37,62.03-18,76-9.76,6.69-120.28,7.42-134,3q-10.005-9-20-18c-12.33-18.75,4.04-94.02-3-122-8.89-35.37-50.54-28.88-93-29h-45c-35.51,12.93-27,68.07-27,116q-1.005,16.5-2,33c-20.86,45.21-130.67-1.17-162,39-25.24,32.36,18.18,123.2-26,149-10.31,6.02-116.28,6.81-132,2-6.32-1.93-17.89-13.64-21-19-4.25-7.31-3-20.89-3-32,0-46,8.44-85.02-15-108-5.01-4.91-10.48-11.84-21-11q-26.49.495-53,1h-48c-56.7,18.31-1.99,138.87-46,167-14.14,9.04-54.69,3-75,3H2771q-7.005,6-14,12-6.495,7.005-13,14-0.495,58.5-1,117c-9.9,36.55-68.29,27-114,27-29.39,0-41.4-1.54-55-16-11.58-12.31-6-85.48-6-111V1818c0-39.09-7.03-87.64,21-99q34.5-1.005,69-2h155c22.78,0,59.25,6.64,73-3,49.84-34.94-9.27-154.57,52-167q60,0.495,120,1c7.45,2.33,19.7,13.51,23,20,12.27,24.11-8.51,95.77,3,123,13.5,31.96,48.61,25.87,92,26h45c36.71-12.63,27-64.59,27-113q1.005-16.995,2-34c20.39-49.5,116.41-3.23,149-28C3450.6,1502.78,3382.02,1407.91,3449,1377ZM386,1547c26.415,3.01,106.836-7.47,126,3q9.5,10.995,19,22c4.48,13.1,4.144,120.23-1,130l-17,18c-10.842,6.89-40.7,3-56,3-41.851,0-82.308,5.62-98-20-6.675-10.9-2-34.11-2-50C357,1598.97,345.8,1564.43,386,1547Zm3743,0c26.77-.41,111.62-6.45,127,4,5.54,3.77,16.11,15.99,18,23q-0.495,62.49-1,125l-17,20c-11.11,7.46-38.58,4-56,4-40.45,0-83.12,5.79-98-20-5.44-9.43-7.05-117.88-2-132C4104.28,1559.01,4117.65,1552.69,4129,1547ZM574,1717H783c37.119,0,71.26-3.31,86,19,4.5,6.81,3,21.08,3,32,0,50.49-8.942,96.37,23,117,18.7,12.08,93.764-3.49,122,3,7.47,1.72,21.52,15.32,24,22q0.495,63.495,1,127c-14.7,58.29-152.666-5.22-170,54v227c0,36.13,4.391,74.63-22,84H719c-6.879-2.46-20.273-17.34-22-25-12.782-56.71,22.628-113.9-24-142-10.353-6.24-58.531-2-75-2q-108.489-.495-217-1c-27.691-8.45-24-39.84-24-75V1983c0-22.27-6.125-56.75,1-74,2.567-6.22,15.866-19.26,23-21,12.1-2.94,123.133-1.02,129,2,29.589,15.23,22.007,66.72,22,111v29c9.778,32.59,52.087,28,95,28,22.451,0,42.8,1.86,54-9,13.3-12.9,16-22.46,16-50,0-46.35,5.81-89.4-25-105-7.223-3.66-17.8-1.01-28-1-42.8.03-93.743,7.04-112-18-4.746-6.51-10.828-125.08-3-138,3.124-5.15,14.791-17.24,21-19Q562,1717.505,574,1717Zm510,0h202c21.96,0,63.5-5.85,78,4,23.94,16.26,18,52.34,18,92,0,18.76,5.03,45.65-2,59-12.73,24.15-43.81,21-81,21H1121c-37.49,0-66.16,3.35-81-19-5.35-8.06-5.35-129.93,0-138C1054.74,1713.77,1060.35,1725.64,1084,1717Zm494,0c24.61-.33,114.68-3.77,126,3q9,10.995,18,22v126q-9,10.995-18,22c-10.22,6.52-36.34,3-53,3-41.04,0-83.53,5.79-100-19-6.93-10.44-6.95-127.59,0-138C1557.35,1726.49,1566.86,1722.18,1578,1717Zm2035,171c49.43-.28,142.15-14.43,151,27,5.68,26.58-8.49,101.45,2,119,19.38,32.44,63.11,24,113,24q16.005,0.495,32,1c29.38,10.92,23,55.88,23,96q-0.495,27-1,54c-12.15,32.99-69.55,24-114,24-9.96,0-24.21-1.63-31,2-32.89,17.6-24,65.29-24,114,0,13,.86,26.06-4,34-16.75,27.37-66.49,20-110,20h-28c-31.86,9.4-28,49.06-28,91,0,16.55-3.31,42.93,4,53l24,21c19.17,5.69,109.4.61,118-6,26.55-20.41,19.1-62.63,19-108v-28c3.13-10.83,14.8-23.14,25-27q61.5-.495,123-1c55.38,13.13,1.32,132.2,48,166,12.46,9.02,49.28,4,69,4h166c18.27,0,52.45-4.92,65,3,30.92,19.5,19,98.69,19,149v374c0,26.59,4.73,128.18-3,140q-9.495,9-19,18c-13.82,5.64-117.28,5.73-131,0-6.42-2.69-18.64-16.16-21-23q-0.495-173.985-1-348c0-19.68,4.02-103.95-2-114-4.41-7.35-18.03-21.7-27-24H3916c-21.8,0-116.76-4.57-128,2-29.84,17.45-24,48.22-24,94v216c-13.42,61.8-154.18-4.73-170,57v278c2.02,7.88,13.05,18.44,19,23,26.02,19.94,88.29-3.22,125,6,8.21,2.06,20.89,14.69,24,22,5.25,12.33,5.56,120.15,0,132-12.4,26.43-52.27,21-91,21H3451c-18.77,5.74-25.17,24.7-28,48q1.005,45.99,2,92c3.7,7.47,19.31,22.79,28,25,49.1,12.46,124.88-22.42,140,25q0.495,108.495,1,217c0,21.29-5.89,63.35,4,77,34.26,47.27,133.46-4.94,163,40,5.42,8.25,6.89,111.51,3,128-2.06,8.74-12.34,20.65-19,25-13.73,8.98-86.85,3-110,3H3349c-43.26,0-89.64,7.35-100-26V4123l19-22c23.37-11.95,92.33,6,122-2,32-8.63,29-47.49,29-89q-0.495-24.495-1-49c-20.99-56.73-135.14-.65-166-45-5.04-7.24-4-20.9-4-33,0-50.34,10-101.78-25-118q-25.5-.495-51-1c-41.89,0-76.93-3.31-88,27-11.2,30.66,11.33,102.67-4,125q-9.495,8.505-19,17c-14.75,4.85-129.17,2.59-136-3-19.22-15.72-17-42.41-17-78V3684c0-40.56,4.78-81.2-28-90H2601c-8.03,2.41-22.1,17-26,24-7.96,14.28-2,79.34-2,101v260c0,23.97,5.68,93.31-4,107q-9.495,8.505-19,17c-12.6,4.66-126.85,2.86-134-2-25.32-17.22-18-69.04-18-111v-27c-8.21-31.91-45.95-29-87-29h-50q-7.005,6-14,12c-21.02,20.96-14,64.4-14,105q-0.495,15-1,30c-11.43,32.48-71.82,23-115,23-9.64,0-23.48-1.64-30,2-32.69,18.26-24,63.9-24,113q-1.005,16.5-2,33c-12.32,28.76-57.31,22-98,22-17.52,0-47.13,3.86-58-4-25.2-18.23-17-68.85-17-112,0-10.84,1.33-24.24-3-31-20.2-31.56-64.23-23-114-23q-16.005-.495-32-1c-28.43-11.63-22-59.04-22-99,0-16.76-3.76-44.37,3-56,27.49-47.32,154.03,12.43,168-50V3674c0-36.18-5.87-73.96,21-84,11.73-4.38,126.67-3.7,135,1,6.3,3.56,17.36,17.8,19,26,6.06,30.34-10.41,101.11,4,121,4.64,6.4,16.71,18.87,25,21h276c32.91-8.25,30-45.99,30-88V3509c0-19.7-5.18-53.49,2-69,13.86-29.92,71.08-21,114-21,12.2,0,24.88.95,32-4,30.67-21.32,22-65.12,22-115,0-11.06-1.41-24.97,3-32,14.23-22.69,66.31-26,107-20,9.5,1.4,27.2,3.16,35-1,7.83-4.18,22.38-18.01,25-27V2941c-2.48-8.09-18.45-23.72-26-27-10.68-4.64-109.28-2.29-116,2-31.42,20.04-23.01,62.56-23,112q-0.495,16.005-1,32c-11.1,29.93-57.3,23-98,23-15.79,0-44.25,4.28-56-2-29.55-15.8-20-80.59-20-125V2602c-1.65-6.46-7.84-10.82-12-15-20.89-20.98-64.48-14-105-14q-15-.495-30-1c-30.62-11.39-23-56.51-23-98,0-16.36-4.33-47.21,3-58,16.97-24.96,65.58-18,107-18h290c43.77,0,101.48-8.97,114,23q0.495,110.49,1,221c0,16.27-4.1,61.56,2,72,4.06,6.95,17.94,21.59,26,24h109c40.64-12.22,28-87.8,28-140V2343c0-23.07-5.21-83.3,4-97q9.495-8.505,19-17,63.495-.495,127-1c35.88,8.75,25,71.71,25,116,0,10.83-1.34,24.26,3,31,20.14,31.32,62.52,23,112,23,10.73,0,25.32-1.69,33,2,28.71,13.79,23,55.69,23,98,0,16.7,3.57,43.32-3,55-27.1,48.14-145.88-10.58-167,47q-0.495,24.495-1,49c0,43.26-2.36,73.65,26,88q78.495,0.495,157,1,63.495-.495,127-1c7.75-3.64,21.88-17.86,25-26q0.495-112.995,1-226c0-40.37,1.03-68.46-26-81q-15-.495-30-1c-42.92.01-92.72,7.24-110-19-8.05-12.22-9.16-103.09-5-126,6.53-36.02,46.64-30,89-30h222c7.45-1.89,16.06-10.9,21-16,13.99-14.46,9-54.18,9-82q0.495-110.49,1-221C3593.33,1900.83,3605.59,1892.75,3613,1888ZM1062,2058h221c21.92,0,68.04-6.56,82,4,23.11,17.48,17,54.74,17,95,0,17.46,4.51,40.49-1,54-10.5,25.76-44.45,22-81,22H1120c-37.66,0-65.54,2.81-80-20-5.16-8.13-6.81-119.71-2-133C1041.08,2071.49,1054.21,2062.46,1062,2058Zm2042,0c21.49-.31,122.76-3.61,132,3q8.505,10.5,17,21v127l-18,21c-10.82,7.03-39.82,3-56,3-40.02,0-80.29,5.43-97-18-6.97-9.77-4-34.11-4-50C3078,2113.71,3068.85,2076.93,3104,2058Zm1022,0c23.66-.35,120.27-5.4,131,4l16,19q0.495,62.49,1,125c-2.2,8.03-12.62,20.01-19,24-10.93,6.83-38.83,3-55,3-41.59,0-81.82,5.59-98-20-6.19-9.79-3-34.17-3-49C4099,2110.99,4089.9,2077.9,4126,2058ZM44,2228c26.329-.21,115.7-6.47,130,4,25.629,18.76,18,74.25,18,118v492c0,34.53.343,64.98-27,71q-62.994-.495-126-1-9-7.995-18-16c-11.061-14.05-5-92.62-5-119V2312c0-18.35-4.26-47.48,2-62C22.366,2239.87,34.225,2233.26,44,2228Zm340,170H610c38.936,0,73.7-4.59,89,19,6.479,9.99,3,35.86,3,51v127c0,23.08,4.387,117.62-3,129-25.709,39.62-88.523,6.61-138,19-8.578,2.15-17.586,13.01-23,19-27.116,30.01,22.908,138.79-33,151-14.064,3.07-119.981,1.69-128-2q-8.5-8.505-17-17c-9.9-15.07-3-57.57-3-81V2602q0.5-90.495,1-181C362.324,2410.4,374.1,2403.54,384,2398Zm509,0h343c22.56,0,117.2-4.22,128,3,43.25,28.9-7.67,131.96,41,164,20.42,13.45,90.29-3.02,120,3,9.29,1.88,22.83,14.18,26,22,2.87,7.08,2.87,123.94,0,131-12.72,31.29-71.83,22-115,22-10.88,0-24.28-1.34-31,3-31.02,20.02-24.09,67.94-23,118,0.23,10.53,2.19,23.31-3,31-14.48,21.46-43.77,18-80,18H1120c-36.22,0-64.22,3.07-79-18-7.66-10.93-4-39.53-4-57,0-42.46-5.94-84.22,23-98,7.7-3.67,22.25-2,33-2,48.02,0.01,89.04,7.98,110-21,4.92-6.8,8.55-100.92,4-116-2.42-8.03-17-22.1-24-26-10.47-5.83-36.59-2-51-2-41.95,0-81.37-3.54-90,29q-0.495,57.99-1,116c-3.51,8.9-14.97,20.56-24,24H888c-25.893-11.61-21-50.4-21-88V2486c0-18.82-5.433-53.55,2-68C873.313,2409.62,884.56,2402.75,893,2398Zm851,170h218c22.62,0,68.21-6.51,83,4,22.62,16.08,18,53.24,18,92,0,17.05,4.05,44.79-2,58-13.73,30.01-72.09,21-115,21-12.19,0-24.99-1.05-32,4-46.46,33.42,2,121.77-37,161-8.67,8.72-37.37,5-54,5-46.51,0-76.97-6.12-97,22-5.17,7.26-1.69,14.04-3,24-5.62,42.82,11.64,100.6-19,121-6.78,4.51-21.04,3-32,3-50.21,0-94.24-8.43-116,22-9,12.58-4,49.21-4,69v166c0,18.82,5.82,51.43-2,64-15.28,24.58-48.77,20-89,20-18.24,0-47.63,4.34-62-2-31.01-13.68-22-74.02-22-118V2938c6.97-38.33,67.57-33.19,115-30q15-.495,30-1c53.4-25.05-.28-131.12,42-165,6.32-5.07,19.85-4,31-4,42.87-.01,95.86,7.33,115-17C1740.56,2682.15,1685.63,2600.2,1744,2568ZM725,2738c24.62-.37,117.858-5.81,130,4q8,9.495,16,19v128q-9,10.5-18,21c-10.8,7-39.8,3-56,3-40.478,0-80.982,5.67-97-19-4.181-6.44-7.506-120.16-2-134C702.018,2749.9,714.761,2742.64,725,2738Zm1361,0c26.36-.22,114.52-6.46,129,4,24.22,17.49,18,63.58,18,105v277c0,24.82,6.29,94-3,110-27.42,47.24-134.71-7.55-165,43-10.12,16.89,3.14,91.84-2,118-1.87,9.52-13.31,23.55-21,27-12.76,5.72-115.27,5.53-131,1-7.04-2.03-21.05-16.92-23-24V2994c0-36.99-5.12-68.46,18-83,7.51-4.72,15-.52,25-2,52.07-7.71,100.23,14.19,124-24,4.36-7.01,3-20.81,3-32C2058,2798.61,2046.65,2756.53,2086,2738Zm857,175c-41.3,26.91-30,55.49-30,119v250q0.495,54.99,1,110c12.09,32.49,56.2,27,101,27h273c26.12,0,95.28,5.85,110-5,29.22-21.56,21-66.08,21-115V3025c0-48.92,7.63-88.92-23-109-14.73-9.66-97.98-3-123-3H2943ZM28,3078H1136c19.36,0,64.53-5.93,73,6,9.04,12.61,3,52.82,3,74V4199c0,24.75,4.64,58.25-5,73-25.29,6.68-63.95,2-93,2H99c-16.393,0-68.5,3.86-77-3-11.474-8.18-6-49.29-6-68V3156c0-23.59-4.235-59.57,5-75Zm3080,0c47.17-.72,120.81-9.82,141,18,7.13,9.82,9.53,113.73,4,132-2.04,6.75-13.31,19.8-19,23-10.51,5.91-125.56,5.95-136,0q-9-10.005-18-20c-5.59-13.62-5.69-116.5,0-130C3084.89,3089.4,3096.65,3083.71,3108,3078ZM1020,3252c-12.21,5.03-35.319,2-51,2H251c-20.463-.01-40.172-3.38-56,2-5.205,11.65-2,32.16-2,49v744c0,16.87-5.545,43.04,6,49q322.467,0.495,645,1H988c13.44,0,42.08,5.05,48-3q0.495-418.965,1-838C1031.89,3254.22,1029.51,3252.04,1020,3252ZM366,3419H731c32.161,0,119.573-7.61,139,5,8.039,32.66,2,86.38,2,126v261c0,24.25,4.56,113.51-6,120-10.712,8.64-102.788,3-125,3H486c-38.777,0-89.184,6.39-124-2-11.193-16.99-5-80.94-5-111V3536C357,3504.19,349.766,3431.54,366,3419Zm1206,0h219c17.4,0,72.32-4.63,83,2l18,21v128c-17.91,54.64-149.46-5.61-169,51v228c0,36.44,4.11,75.15-23,84H1570q-9.495-8.505-19-17c-10.55-15.23-4-60.98-4-84V3487c0-14.64-2.73-35.72,2-47C1552.54,3431.56,1564.12,3423.62,1572,3419Zm510,0c22.54-.33,121.37-4.04,132,3,5.98,3.96,15.69,14.57,18,22v125q-8.505,10.5-17,21c-11.11,7.62-39.42,4-57,4-41.11,0-82.47,5.81-98-20-5.59-9.29-2-33.82-2-47C2058,3475.61,2048.99,3440.16,2082,3419Zm1702,170h350c23.23,0,112.15-5.49,123,4l16,19q0.495,89.49,1,179-0.495,60-1,120-10.005,10.5-20,21c-12.13,5.5-123.18,4.63-133-1-28.31-16.23-21.01-66-21-110v-29c-2.52-8.36-19.58-25.54-28-28H3962l-24,21c-7.3,10.1-4,36.44-4,53,0,42.09-3.93,82.58,29,91h28c42.19-.01,90.1-6.74,108,18,5.24,7.24,10.95,118.02,4,135q-9,10.005-18,20c-11.43,6.4-58.66,2-76,2H3838c-36.69,0-63.38,2.63-77-20-6-9.97-2-55.18-2-71V3830q0.495-109.485,1-219C3763.33,3602.13,3775.83,3593.66,3784,3589ZM1405,3929c47.31-.31,132.09-12.37,146,22,3.73,9.21,1.06,20.3,1,31-0.29,50.04-8.22,93.42,23,114,6.61,4.36,20.13,3,31,3,42.92,0,94.86-7.38,113,18,6.2,8.68,7.7,121.5,2,135q-7.995,9-16,18c-13.43,9.97-55.89,4-77,4H1453c-35.33,0-63.56,2.38-74-22-8.01-18.69-2-57-2-80V4018c0-19.82-4.61-51.09,2-67C1383.21,3940.86,1395.29,3934.2,1405,3929Zm1361,0c46.79-.7,124.74-10.5,144,18,4.91,7.26,6.7,122.93,2,135q-9,10.005-18,20c-8.58,4.74-121.18,5.42-133,1-5.95-2.22-18.5-15.24-21-21-5.61-12.89-5.5-117.96,0-131C2744.38,3940.62,2755.99,3934.24,2766,3929Zm338,0c21.85-.32,118.56-4.49,130,2l19,22c3.55,11.8,2.87,121.44-1,130q-9,9.495-18,19c-8.73,5.28-31.5,2-44,2-41.82,0-96.92,8.41-110-21-5.36-12.05-5.43-121.06,0-133C3083.84,3941.56,3095.72,3933.58,3104,3929Zm-850,170c21.94-.33,121.04-3.82,131,3l17,20c4.7,12.74,4,120.97-1,131q-8.505,9-17,18c-10.77,7.02-39.82,3-56,3-40.45,0-81,5.65-97-19-4.36-6.71-7.47-119.7-2-134C2232.48,4111.89,2245.47,4103.71,2254,4099Zm681,0c22.18-.33,119.6-3.93,130,3,5.18,3.45,16.27,15.49,18,22v124c-2.1,7.06-11.54,17.91-17,22-10.62,7.95-40.67,4-58,4-42.71,0-76.19,6.5-96-18-7.16-8.85-4-33.91-4-49C2908,4155.22,2898.4,4117.09,2935,4099Zm1191,0c22.79-.34,117.67-4.18,129,3q9,10.005,18,20c3,7.66,2.97,121.22,0,129l-16,19c-10.19,8.53-43.73,4-61,4-38.77,0-77.37,5.27-93-18-5.69-8.46-8.48-119.18-3-134C4103.79,4111.76,4116.17,4103.86,4126,4099Z" transform="translate(-14.344 -13.906)"/>
</svg>
