<svg xmlns="http://www.w3.org/2000/svg" width="4284" height="4281" viewBox="0 0 4284 4281">
  <defs>
    <style>
      .cls-1 {
        fill: #394956;
        fill-rule: evenodd;
      }
    </style>
  </defs>
  <path id="QR-CODE-02" class="cls-1" d="M0,0H976c14.861,0,56.4-5.28,63,4q-0.495,110.989-1,222V953c0,26.254,2.95,59.93-2,80-15.2,9.83-53.205,5-79,5H765q-382.461-.495-765-1V0ZM1491,0c21.69-.252,117.03-5.285,127,3-2.24,11.382,9.49,14.958,12,25V92q-0.495,89.492-1,179c-3.52,9.714-18.47,24.385-29,27l-96-1q-10.995-9.5-22-19c-9.37-13.9-4-52.8-4-74V26C1481.26,15.045,1489.66,13.1,1491,0Zm296,0c21.69-.252,117.03-5.285,127,3-1.77,10.95,9.52,15.683,12,26v90c-2.43,9.868-13.41,21.957-21,27-10,6.649-32.9,4-49,4-75.93,0-82-3.8-82-80V27C1776.88,15.319,1785.58,13.218,1787,0Zm296,0h307c24.6,0,101.03-6.421,116,3-2.55,10.071,9.93,16.154,12,29q-0.495,45-1,90-14.505,14-29,28c-34.85-.207-99.84-8.752-114,13-15.77,24.229,6.7,90.666-7,111l-12,8q-6.495,7.5-13,15l-54,1H2147c-17.11,0-46.2-3.972-58,3-20.6,12.173-15,43.148-15,75,0,17.814-3.91,39.052,3,51,11.06,19.135,41.97,15,72,15h191q14.505,14,29,28V657c0,29.489-4.25,63.562,13,76,12.63,9.107,45.39,5,66,5h188c10.5,2.519,23.65,15.228,28,24,4.92,9.916,1,29.163,1,43,0,45.406,6.59,48.585-17,73-4.11,4.256-6.38,10.253-13,12-44.61,11.777-107.07-19.953-118,25v539q-12,12.495-24,25c-6.09,4.41-90.22,6.04-101,2-7.64-2.86-20.3-15.06-24-22-4.45-8.34-3.26-25.33-2-36q-0.495-19.005-1-38c0.31-38.55-3.62-51-45-51h-35q-22.005.495-44,1c-27.81,10.65-19.01,57.52-19,95v125c0,15.76,3.38,41.25-3,52-14.29,24.09-38.89,23-78,23h-41c-31.96-7.71-30.01-40.56-30-81q0.495-92.49,1-185c-4.45-39.47-53.21-30.01-96-30q-13.005-.495-26-1-13.005-12.495-26-25-0.495-89.49-1-179c0-18.3-5.97-60.5,2-71l27-24h94c7.32,3.21,26.9,22.75,29,31,10.42,40.97-16.07,95.6,15,114,12.54,7.43,44.01,3,62,3h149c25.19,0,49.38,2.45,60-12,9.93-13.5,5-42.56,5-65V954c0-26.3,4.18-50.978-14-61-23.09-12.732-86.3,8.078-108-5q-5.505-7-11-14c-6.26-5.623-12.84-7.008-15-17q0.495-94.99,1-190c0-34.577,4.22-66.468-24-73H1883c-45.6,0-100.34,8.106-109-29V322c2.19-8.4,15.84-22.291,23-26,28.51-14.777,92.67,11.229,116-10,23.23-21.136-4.91-95.207,14-121,18.75-25.567,53.28-19,96-19,11.53,0,23.37.744,31-3,32.23-15.809,6.19-75.458,16-116C2072.8,15.436,2081.72,12.947,2083,0Zm592,0h125V2c3.23,7.533,10.25,14.937,13,23,2.64,7.72,1.71,94.278-1,99l-12,10c-20.11,19.989-28.29,16-68,16h-41q-14.505-14-29-28-0.495-46.5-1-93C2664.05,16.8,2672.53,12.761,2675,0Zm422,0c0.57,15.951,10.2,17.185,13,30V67c0,40.4,1.75,70.964-27,82l-45,1c-65.06,0-81-.642-81-67V30c2.7-12.758,11.76-17.262,14-30h126ZM4284,0V1038H3375c-36.4,0-82.35,5.24-115-2-10.69-14.87-6-53.411-6-78V0H4284ZM1211,146c24.36-.44,90.73-5.135,104,5q8.505,9.5,17,19c4.1,8.673,5.24,91.572,1,102q-10.005,11-20,22c-10.04,6.639-32.9,4-49,4-37.29,0-63.26,1.953-78-20-5.28-7.868-8.04-93.273-3-106C1187.74,160.03,1200.53,152.6,1211,146Zm1332,0c53.04-.033,97.6-9.076,120,24,10.69,15.793-3.47,73.747,2,99,2.41,11.126,12.49,22.05,23,25,16.5,4.632,99.01,1.379,108-4,27.97-16.732,4.53-74.139,13-112,2.16-9.641,20.84-26.941,29-31l42-1c41.4,0,75.25-1.835,82,32,6.49,32.566-10.44,79.839,4,103,18.45,29.6,83.94.636,118,14,8.88,3.484,21.85,17.673,25,27q0.495,82.992,1,166-0.495,112.989-1,226c-3.16,9.026-15.59,22.229-24,26-11.53,5.172-34.89,2-50,2-38.21,0-64.17.614-76-25-4.81-10.414-2-31.193-2-45V545c0-39.367,10.52-91.754-23-99H2741c-23.35,0-55.05-3.815-67,8-19.93,19.7-2.86,74.052-8,106-5.72,35.525-39.88,34-82,34h-40c-59.85-14.056-10.86-101.958-36-137-16.81-23.423-75.83-4.448-108-10-9.93-1.714-25.5-17-31-24-7.15-9.105-1.63-26.255-3-39-1.69-15.792-5.77-54.2,2-66l15-12c3.7-3.824,6.36-10.277,12-12,36.66-11.191,94.42,15.861,114-13,15.44-22.762-3.96-70.922,4-103C2516.01,165.875,2534.19,153.419,2543,146ZM156,150c-13.172,13.509-6,135.246-6,169V726c0,31.41-5.975,141.943,3,158,15.913,3.806,39.829,2,59,2H827c18.63,0,45.758,2.989,58-4,4.257-11.98,2-32.566,2-50V195c0-17.365,4.941-37.912-7-44Zm3256,0c-1.33.667-2.67,1.333-4,2-4.77,12.833-2,29.789-2,49V840c0,15.889-6,37.318,4,44,11.48,6.1,39.48,2,55,2h615c19.17,0,43.09,1.813,59-2,9.91-20.486,3-127.855,3-163V195c0-17.9,5.78-37.537-6-44ZM307,293l428,2c12.828,10.229,7,75.49,7,102V643c0,29.362,6.717,79.21-5,97-27.6,7.408-74.631,2-109,2H400c-25.569,0-97.94,5.907-105-8q-0.5-66.993-1-134,0.5-149.485,1-299C298.509,296.4,301.63,295.89,307,293Zm3256,0,428,2c10.71,5.963,6,82.512,6,105q-0.495,167.983-1,336c-19.55,13.737-77.95,6-111,6H3658c-32.89,0-80.44,5.652-105-3-10.16-21.7-3-70.7-3-101V398c0-23.8-5.6-96.5,7-103ZM1212,442h292c27.26,0,93.01-5.782,108,6q8.505,10.5,17,21c4.41,12.613,3.56,89.271-1,100-21.99,51.778-124.92-.649-145,44q-0.495,95.49-1,191c0,16.034,4.96,48.388-2,60-3.68,6.139-21.81,24.14-29,26-36.03,9.325-96.41-14.8-113,13-13.71,22.972,6.34,82.792-5,108q-7.5,6.5-15,13c-4.64,4.62-7.75,12.13-15,14h-42q-26.49-.495-53-1c-40.67-14.15-26-107.071-26-162,0-28.253-6.27-101.649,4-117,29.6-44.226,132.82,6.88,144-45q-0.495-49.5-1-99c-2.54-7.523-11.28-16.549-19-19l-30-1c-44.44,0-73.8,5.766-94-20-4.74-6.041-8.1-90.65-4-104C1186.14,456.516,1200.38,448.549,1212,442Zm444,296h291c27.81,0,93.38-5.856,109,6,6.85,5.2,15.81,15.5,18,25v90c-2.01,7.9-8.96,10.164-14,15q-7.005,7.5-14,15c-26.01,11.269-84.82-9.723-107,5-20.35,13.509-13,57.6-13,91q-0.495,12.5-1,25-7.995,7.5-16,15c-4.37,4.43-7.06,11.21-14,13q-46.995-.495-94-1-13.5-13.995-27-28c-9.71-31.865,12.05-83.176-5-107-18.33-25.616-75.78-3.383-112-12-7.37-1.752-28.91-22.157-31-29q0.495-48.995,1-98C1632.15,751.6,1644.98,744,1656,738ZM1511,885l89,1c8.35,3.243,11.77,12.555,18,18,4.48,3.913,10.09,5.54,12,12,10.84,36.729-15.22,91.95,11,112,21.71,16.61,88.36-4.15,110,7q13.5,14.505,27,29v175c0,18.65,5.85,58.65-3,71-3.6,5.02-19.53,20.61-25,23-11.13,4.87-95.3,1.57-101-3q-11.505-12-23-24v-21c0-24.66,6.01-67.72-4-85-10.88-18.79-44.66-14-74-14h-44c-42.38,11.48-9.87,74.68-22,118q-13.5,14.505-27,29-123.99.495-248,1c-45.39,13.04,1.91,112.5-41,143-9.72,6.91-29.43,5-46,5q-29.49-.495-59-1-7.5-8.505-15-17c-5.52-4.46-11.13-6.89-13-15-7.89-34.29,14.69-91.51-11-110-23.31-16.78-74.4,4-106-5-2.439-.69-24.644-20.24-27-23-3.8-4.45-6.188-88.87-3-100,2.527-8.82,13.769-21.77,21-26,17.213-10.07,64.009-3,90-3h227c21.38,0,76.27,5.05,90-3,22.58-13.24,16.38-60.56,16-96-0.1-9.31-2.14-17.27,2-24,4.1-6.66,21.92-24,30-26,30.13-7.45,85.53,13.42,106-6,19.85-18.83,6.03-74.365,9-107C1478.33,905.4,1500.36,891.592,1511,885Zm592,0c51.67,0.26,94.41-7.368,116,25,5.24,7.851,5.6,92.49,1,103q-10.5,11-21,22c-9.92,5.61-31.38,3-46,3-15.23,0-47.22,4.9-58-2l-12-15-11-8c-3.65-5.59-3.68-97.7,0-103C2078.32,900.915,2092.86,890.537,2103,885Zm592,0c46.89,0.653,106.29-8.374,118,28,11.91,36.984-18.66,102.46,18,119,10.51,4.74,31.11,2,45,2h34c61.62,0,47.01-35.841,47-92q0.495-14.5,1-29c2.91-8.13,15.38-21.492,23-25,8.99-4.137,86.17-5.555,99-2,10.9,3.018,23.66,15.379,28,25,6.1,13.519,2,41.641,2,59v136c0,22.22-4.85,50.65,5,64,20.73,28.1,91.44-2,121,15,7.5,4.32,18.24,16.08,21,25q0.495,90.99,1,182c0,21.78,4.34,56.3-5,70l-22,19q-97.485.495-195,1-27.99.495-56,1c-23.7,9.96-18,40.81-18,73v190c-1.9,8.41-8.85,10.91-14,16q-7.005,7.5-14,15-36.99.495-74,1-13.995.495-28,1c-24.25,10.25-19,47.75-19,82,0,14.53-2.12,33.95,3,44,3.55,6.97,12.82,14.82,21,17,16.16,4.31,98.78,1.38,107-4,28.14-18.4,3.74-73.95,13-113,1.77-7.48,20.69-26.66,27-30,5.31-2.81,90.66-3.66,100,0,25.98,10.18,26,36.94,26,74q-0.495,97.995-1,196c-2.86,9.27-14.19,21.58-22,26-29.68,16.78-98.42-12.74-120,14-6.13,7.6-9.81,88.81-6,107,10.91,52.14,91.02,9.29,126,28,47.83,25.58,3.91,99.99,28,134,17.96,25.35,74.39,1.47,111,11,9.17,2.39,12.67,12.58,19,18,5.28,4.52,11.02,6.11,13,14v62q-0.495,89.49-1,179c-3.33,9.43-17.21,24.19-27,27h-40c-42.91,0-78.69,4.22-85-33-6.15-36.29,14.42-94.65-14-111-7.93-4.56-19.46-4-32-4-42.2,0-79.88,6.22-97-19-22.23-32.73,16.03-109.05-21-126-21.61-9.89-87.41-3-117-3H2504c-21.26,0-104.78,5.18-114-2q-12-13.005-24-26-0.495-45.495-1-91c13.98-65.4,115.61-5.23,143-44,16.57-23.46-6.15-78.47,6-108,2.84-6.91,11.06-10.04,16-15q4.995-6,10-12c6.68-3.68,15.43-1.07,24-1,38.26,0.3,88.15,7.97,97-22V1847c0-28.59,4.8-54.79-14-66-22.45-13.39-77.07,6.66-104-3-6.95-2.49-10.13-11.21-15-16-5.64-5.55-12.72-6.82-15-16V1509c2.21-7.85,20.33-26.13,27-30,8.75-5.08,30.72-1,44-1,38.95,0,72.08-2.32,81,27,9.01,29.62-11.17,83.17,5,108,11.62,17.84,47.86,13,77,13,17.53,0,39.45,2.24,50-5,17.51-12.02,12-42.62,12-71V1361c2.11-8.28,9.73-10.89,15-16q7.005-7.5,14-15c23.82-9.09,77.73,9.33,102-2,24.12-11.27,16.98-48.86,17-83,0.01-21.31,3.59-41.55-9-52-17.88-14.84-119.2-10.2-130,6-15.6,23.4,2.68,73.09-4,103-1.84,8.23-21.06,27.53-28,31h-98c-34.95-13.25-27-66.24-27-114q0.495-152.49,1-305C2666.39,903.57,2685.01,890.641,2695,885ZM32,1181q341.965,1.005,684,2c31.178,12.77,27.4,57.19,26,102-0.347,11.09-1.6,21.48,3,30,18.209,33.74,99.3.22,121,18,6.314,5.17,22.05,19.54,24,28,7.35,31.89-10.335,78.07,3,102,16.028,28.76,74.984,7.6,111,14,8.95,1.59,29.94,20.54,33,28v98c-3.39,9.77-18.48,24.39-29,27H833c-17.8,0-56.032,6.01-69-2-8.359-5.16-25.913-22.04-27-34-3.184-35.05,12.622-92.61-12-108-7.581-4.74-19.56-4-32-4-49.205,0-81.066,6.34-101-25-3.347-5.26-2-16.78-2-25,0-32.92,7.685-81.53-13-94-16.752-10.1-130.914-4-162-4H29c-12.523-2.74-15.434-12.06-29-13V1195H2C12.238,1191.61,20.717,1186.69,32,1181Zm3404,0c50.14,1.44,108.08-9.71,118,33,9.16,39.46-18.14,102.89,20,115q22.005,0.495,44,1c31.75,0,66.89,4.92,77-17,20.96-45.47-24.78-112.81,31-131h45c37.48,0,60.42-2.35,75,21,7.55,12.08,3,44.32,3,62v139c0,21.04-3.76,46.69,4,60,17.35,29.75,78.35,3.41,116,14,30.96,8.71,28,43.71,28,84,0,14.44,2.7,36.37-3,46-16.35,27.6-57.2,22-101,22-13.36,0-24.42-.4-32,5-37.68,26.87,19.25,127.8-42,143H3633c-20.38,0-55.94-4.65-68,5-16.51,13.21-11,44.31-11,73q-0.495,82.485-1,165c-1.06,8.89,2.35,18.93-1,27-4.27,10.27-18.24,23.26-30,26h-47c-36.24,0-58.31-.29-71-23-6.26-11.21-2-39.69-2-55V1860c0-24.19,3.96-58.14-7-72-12.21-15.44-53.02-10-80-10H3184c-17.18,0-43.88,3.44-56-3-24.61-13.07-22-37.85-22-75,0-20.5-3.93-44.02,5-56,19.21-25.77,74.69-18.01,119-18h325c40.32,0,127.73,9.68,140-17,5.71-12.42,3-31.1,3-47,0-28.02,4.35-63.06-12-75-12.68-9.26-46.23-5-67-5q-95.49-.495-191-1c-8.15-3.1-19.76-14.75-24-22-8.35-14.29-2-56.29-2-78V1256c0-16.77-3.91-40.93,2-52C3410.38,1192.05,3422.98,1186.91,3436,1181Zm592,0c45.71,1.49,102.91-8.66,116,26q0.495,33,1,66v180c-2.48,9.89-16.99,24.62-26,28q-22.5.495-45,1-27-.495-54-1c-39.89-14.28-27-96.99-27-150,0-28.73-7.09-110.36,4-128C4004.31,1191.37,4014.59,1187.02,4028,1181ZM1511,1329q45,0.495,90,1,7.995,8.505,16,17c4.84,3.91,11.14,6.21,13,13v64q-0.495,89.49-1,179c-3.87,9.75-18.21,24.32-29,27h-37c-40.4,0-72.77,2.72-84-26q-0.495-122.985-1-246C1481.53,1348.08,1501.57,1334.03,1511,1329Zm295,0c52.33-.36,94.83-7.11,117,25,4.5,6.51,6.35,83.51,3,97-2.3,9.28-13.68,22.47-21,27-10.08,6.24-31.09,4-47,4-39.09,0-66.63,2.24-81-22-3.87-6.52-6.65-94.54-2-104C1779.44,1346.96,1797.13,1334.34,1806,1329ZM554,1477c15.929,0.49,17.605,7.55,25,16q6,4.005,12,8c7.877,10.4,3,44.66,3,61v38c-1.93,6.29-7.6,8.15-12,12q-7,7.995-14,16c-10.207,6.56-40.439,2-55,2-12.6,0-36.283,3.41-45-2-5.356-3.32-22.507-19.37-25-25-4-9.02-2.76-94.73,1-102,3.923-7.58,17.272-20.45,26-23Q512,1477.505,554,1477Zm-380,1c48.863-.38,113.974-10.27,124,29,9.523,37.3-14.413,94.21,11,113,22.848,16.89,80.55-3.51,108,6q14,13.5,28,27,0.5,47.49,1,95-13,13.995-26,28c-9.056,5.8-54.02,2-69,2H176c-10.657-2.67-25.053-16.5-29-26q-0.5-36.495-1-73,0.5-87.495,1-175C151.674,1492.08,164.405,1485.33,174,1478Zm451,147q44,0.495,88,1c7.759,2.72,10.219,12.26,16,17,4.346,3.56,9.692,4.39,12,10q0.5,13.005,1,26c0,40.23-9.337,86.99,24,95h296c25.93,0,89.54,5.89,106-4,27.04-16.24,7.15-74.94,13-110,6.12-36.71,41.54-34,85-34h40c56.72,16.71,3.73,121.82,41,144,12.96,7.71,42.6,4,62,4h192c10.78,2.73,24.25,17.07,28,27q0.495,22.5,1,45c0,38.13.83,60.56-21,76-12.57,8.89-125.84,4-153,4H1050c-30.86,0-131.342-7.53-148,5-5.545,4.17-11.255,13.34-13,21v91c9.4,40.51,85.8,27,134,27h421c10.48-.74,16.54,4.2,23,10,32.23,28.9,3.15,74.16,15,115,2.04,7.03,9.07,16.8,15,20,9.86,5.32,87.69,6.84,104,3,51.84-12.22.14-120.14,48-146,13.04-7.05,108.07-2,134-2q206.475,0.495,413,1c7.82,3.14,20.61,15.46,24,23,4.99,11.1,4.74,91.64,0,103-2.95,7.06-16.02,19.92-23,23-16.51,7.28-65.84,2-88,2H1881c-25.21,0-72.82-6.86-89,3l-13,16c-4.28,12.36-4.32,92.64,0,105,14.8,42.34,113.34-4.06,143,40,7.69,11.42,4,40.12,4,58v145c0,31.26-5.43,61.87,18,71q22.5,0.495,45,1h36c59.49,0,45.01-40.78,45-96,0-10.67-1.17-23.33,3-30,16.94-27.08,56.92-22.08,101-22,10.57,0.02,20.01,2.23,28-2,29.86-15.81,8.48-74.16,15-111,6.37-35.99,38.88-35,82-35h39c7.58,2.04,28.51,21.81,31,29v244c-2.33,7.7-12.84,18.75-19,23-32.99,22.79-116.53-23.94-129,31q0.495,90.99,1,182c0,17.5,5.1,55.01-4,65-4.96,5.44-17.72,19.02-24,22h-96c-6.56-2.88-25.86-21.88-28-29-12.85-42.8,23.39-109.18-27-119q-48,.495-96,1c-7,2.32-15.86,9.73-19,16-12.51,24.97,7.16,69.96-2,101-2.34,7.92-23.12,28.68-31,31-16.76,4.93-93.89.62-102-5-26.22-18.16-19-69.13-19-113V2542c-7.09-29.22-38.85-25-75-25H1505c-55.24-17.31-2.77-120.84-41-144-15.27-9.25-71.87-4-96-4H1062c-8.14-3.34-27.04-23.36-29-33-8.24-40.51,21.56-115.89-29-115q-93.49.495-187,1c-27.5,0-58.364-4.06-70,12-16.431,22.68,3.33,71.82-5,105-1.869,7.45-19.8,25.23-26,29-3.542,2.15-91.741,3.48-98,1-5.248-2.08-22.923-19.12-26-24-7.842-12.43-2-49.77-2-67q0.5-90.99,1-182,9.5-10.995,19-22c23.422-16.38,83.895,7.45,112-7,22.431-11.53,16-49.51,16-83,0-16.21,2.94-31.81-3-43-10.254-19.31-41.629-15-71-15H521c-18.11,0-46.325,3.53-58-4q-10-10.995-20-22V1800q14-13.005,28-26c33.344-11.11,94.11,15.65,114-13,15.928-22.95-3.066-71.58,5-105,2.641-10.94,20.766-22.02,28-30C620.333,1625.67,622.667,1625.33,625,1625Zm1177,1c48.68-.38,110.49-9.78,123,27,12.48,36.69-15,97.07,13,116,23.82,16.1,83.11-6.05,111,6,8.12,3.51,21.04,17.34,24,26,4.34,12.71,3.63,89.31-1,100q-9.495,10.5-19,21c-13,9.05-49.84,4-70,4H1804c-10.39-2.54-25.13-15.94-29-25q-0.495-36-1-72,0.495-88.995,1-178C1779.17,1640.23,1792.67,1632.14,1802,1626Zm2368,0c39.52-.6,95.01-6.92,114,14v125q-10.5,6.495-21,13h-91c-9.96-2.45-21.92-13.38-27-21-6.42-9.62-7.13-97.47-1-109C4149.16,1638.29,4160.7,1631.89,4170,1626ZM2479,1773c10.94,1.02,33.1,18.96,37,26q0.495,65.49,1,131-0.495,58.995-1,118-13.005,12.495-26,25-25.995.495-52,1h-41c-62.02-14.53-10.7-101.07-37-137-23.71-32.41-114.93,12.21-140-34-6.15-11.34-2-33.49-2-50,0-39.02-2.45-62.82,23-77,11.8-6.58,42-2,58-2Q2388.985,1773.505,2479,1773ZM0,3097V2004c0-14.41-3.174-64.9,4-70,10.023,1.22,13.233-9.78,23-12H148c53.208,0,138.406-13.85,150,29v94c-10.129,34.91-55.83,29.01-101,29q-15.5,1.005-31,2c-22.183,10.45-16,52.84-16,85,0,17.58-2.44,33.62,5,44,12.805,17.87,49.673,13,80,13H372c17.042,0,42.631-4.68,53,3,20.387,15.11,21,33.42,21,70v49c-16.339,59.95-116.19,3.43-143,42-24.021,34.55,21.08,112-30,134-34.29,14.77-102.53-19.31-121,19-7.132,14.79-2,95.84-2,122v301c0,28.08,7.04,114.6-4,131-4.436,6.59-15.353,16.89-23,20q-47,.495-94,1C16.749,3107.16,15.878,3097.54,0,3097ZM3726,1922c47.41-.11,108.42-9.62,122,25q0.495,13.5,1,27c0,41.72-9.24,88.77,26,96h42c38.19,0,70.09,4.68,77-27q-0.495-11.505-1-23c-0.25-42.48-4.43-79.2,22-95,9.56-5.72,31.59-3,46-3,39.74,0,76.14-3.2,84,28,9.47,37.6-15.12,99.05,14,116,34.37,20,94.93-14.03,125,18v272q-9,6.495-18,13H4078c-38.53,0-65.88,3.88-81-20-22.12-34.95,21.37-114.91-26-127H3786c-19.3,0-48.45,4.1-64-2q-10.995-10.5-22-21c-7.29-12.37-2-55.19-2-76V1990c-0.15-13.95-4.16-31.61,1-44C3703.35,1935.55,3716.41,1927.71,3726,1922Zm-439,295q141.99,0.495,284,1c25.65,0,94.73-5.94,109,3q10.005,10.995,20,22,0.495,48.99,1,98c-16.74,57.1-99.56,7.16-136,34-25.76,18.98-1.58,73.92-11,111-2.48,9.77-11.63,11.4-17,18-4.75,5.84-7.23,12.14-16,14q-17.505-.495-35-1c-39.35,0-75.79,4.44-84-27-8.31-31.84,11.39-88.08-8-111-19.54-23.1-77.1-.92-109-9-3.62-.92-29.91-25.06-31-28q0.495-49.995,1-100C3261.11,2228.92,3273.99,2223.71,3287,2217ZM474,2365q45.5,0.495,91,1c7.138,2.88,8.831,10.32,14,15,5.3,4.79,12.919,7.04,15,15,11.747,44.97-22.127,112.73,28,118,17.035,1.79,90.3,2.16,100-3,23.792-12.65,16.229-60.6,16-97-0.056-8.84-2.244-17.53,2-24,2.2-3.35,26-23.99,30-25h236c7.72,1.99,28.19,21.08,31,28q0.495,22.005,1,44c0,42.41,4.78,45.58-17,68q-5.5,6-11,12c-23.285,9.09-83.025-9.16-106,4-6.6,3.78-13.086,14.65-15,23v91c8.054,34.66,52.522,26.01,94,26h24c7.95,2.39,11.02,10.51,16,16l13,10c6.44,10.77,2,40.03,2,55,0,13.71,3.52,39.61-3,48-3.93,5.05-19.45,20.51-25,23H944q-90.991-.495-182-1-10.5-10.005-21-20c-4-6.69-3-18.46-3-29,0-42.29,9.667-90.34-26-98H470c-9.284-2.79-21.86-14.96-26-23-8.293-16.09-2-55.28-2-76q0.5-87.495,1-175C448.391,2378.09,462.13,2371.98,474,2365Zm591,148c47.77-.88,100.43-7.1,118,23,4.49,7.69,6.56,90.63,2,102l-27,27h-42c-15.68,0-45.54,5.31-56-1q-7.005-7.995-14-16c-4.21-3.65-9.7-5.51-12-11-3.85-9.16-.05-95.87,3-100Q1050.995,2525,1065,2513Zm2516,0h181c39.98,0,68.95-2.47,84,22,17.36,28.23-14.22,100.25,16,122,19.29,13.88,76.45-3.09,104,4,11.03,2.84,20.92,19.32,30,26q0.495,48.99,1,98-13.5,13.995-27,28H3832c-22.09,0-99.19,5.56-110-2-6.58-4.6-22.96-20.63-25-29-8.18-33.59,16.09-94.86-12-112-25.04-15.28-85.68,5.81-111-6-7.05-3.29-20.06-15.76-23-23-3.01-7.4-3.46-95.85,0-102C3555.87,2530.34,3572.56,2518.77,3581,2513Zm444,0c48.28-.9,101.02-7.22,118,24,3.62,6.65,5.52,88.87,2,100q-13.5,13.995-27,28h-41c-39.38,0-46.93,6.92-68-14-4.65-4.61-12.09-6.68-15-13-5.04-10.97-1.39-98.13,3-104C4004.18,2524.38,4014.23,2519.32,4025,2513ZM326,2661c49.721-.36,110.37-9.37,120,31,8.911,37.35-14.012,93.1,11,112,21.521,16.26,74.251-1.52,105,5,33.557,7.12,32,40.46,32,82q-0.5,22.005-1,44c-20.026,54.67-112.74,5.64-140,36-28.2,31.41,22.947,125.77-39,139q-46-.495-92-1c-9.351-3.14-20.349-13.99-25-22-8.39-14.44-3-51.7-3-72V2837q0.5-74.985,1-150C300.094,2674.26,314.093,2667.5,326,2661Zm887,0h287c27.06,0,93.99-5.93,110,5l19,22v99c-12.81,31.82-49.1,26-93,26H1304c-23.02,0-89.66,5.13-100-4-5.22-4.61-19.69-17.71-22-24-2.75-7.49-1.7-91.72,1-97C1187.52,2679.14,1204.55,2666.64,1213,2661Zm1333,0c44.2-.82,95.43-6.48,114,19,4.96,6.8,10.4,91.84,5,106l-27,27h-41c-45.49,0-57.67,2.7-80-22-6.63-7.33-4-28.6-4-42C2513,2694.89,2509.05,2680.09,2546,2661Zm295,0c48.94-.23,107.6-9.01,120,28,13.99,41.77-22.37,116.82,28,121h684q4.995,5.505,10,11c6.85,7.34,16.56,10.05,19,22,8.65,42.32-20.89,110.32,28,115q94.485-.495,189-1c26.38,0,56.58,4.86,68-10,18.02-23.45-4.11-72.54,6-107,2.26-7.69,17.88-22.23,24-27,21.34-16.62,95.98,8.99,115-11,21.75-22.85-1.22-72.52,9-110,2.11-7.74,23.45-28.72,31-31h90q10.995,6.495,22,13v275q-10.995,6.495-22,13c-42.96,9.46-106-17.95-117,23v244c-2.25,8.83-13.95,20.55-21,25-9.67,6.1-29.61,4-45,4-16.95,0-49.81,4.66-61-3l-11-14c-5.23-4.46-11.87-6.44-14-14-11.76-41.76,20.09-106.21-21-117H3782c-20.3,0-54.63-4.54-68,4-14.42,9.2-20.7,99.83-10,123,9.75,21.12,41.27,17,72,17q94.485-.495,189-1c8.34,1.8,10.28,7.72,15,13,4.76,5.33,14.64,8.62,17,16,11.52,36.06-17.34,101.48,17,117,13.04,5.89,38.15,3,56,3h196q9,7.005,18,14v272c-7.19,4.04-11.39,10.45-20,13H3954c-45.28,0-93.59,8.27-107-24-5.95-14.32-2-41.97-2-60V3483c0-20.31,5.17-49.48-3-63-11.77-19.49-43.92-14-75-14h-44c-25.73,6.69-22,38.54-22,71q0.495,94.995,1,190c-11.56,69.59-128.2,4-147,53-5.02,13.08-1,32.7-1,49q-0.495,99.99-1,200c-2.63,7.79-10.86,17.43-17,22-11.63,8.66-36.83,6-57,6-37.76,0-64.26,1.37-76-24q-0.495-88.485-1-177c0.01-38.69,7.6-84.09-22-94q-99.495-.495-199-1c-26.52,0-54.62-3.14-66,12-26.16,34.83,26.58,128.57-41,137q-45.495-1.005-91-2c-8.74-3.22-22-17.03-25-26-14.83-44.36,21.87-110.18-26-121q-122.49-.495-245-1c-8.31-3.18-20.62-15.86-24-24-6.89-16.57-2-49.43-2-70q0.495-88.485,1-177c0.45-.99,23.81-25.3,25-26,5.92-3.51,14.89-1.22,22-1,32.15,1,80.42,5.64,95-12,17.24-20.86-2.58-72.9,5-105,1.86-7.89,20.4-26.22,27-30,18.74-10.75,87.24,8.39,109-6,16.85-11.13,12-38.43,12-65V3035c0-23.21,4.4-49.21-6-63-8.49-11.26-109.38-17.03-125-6-18.14,12.81-13.01,52.42-13,83v181c-2.24,5.77-20.58,22.76-26,26-8.92,5.33-32.24,2-45,2-16.93,0-46.88,3.95-57-4l-11-14c-4.84-3.88-11.01-6.44-13-13-12.26-40.5,21.18-106.4-21-117H2334c-46.36.01-97.54,7.35-114-23-5.53-10.19-2-28.93-2-44,0-17.83-5.44-49.61,2-61l15-12c4.42-4.68,6.79-11.12,14-13,31.78-8.3,81.83,11.13,104-4,38.08-25.98-19.82-129.99,44-144q46.5,0.495,93,1,13.005,12.495,26,25c4.11,7.35,1.04,18.39,1,28-0.23,59.45-13.87,94,50,94h37c15.73,0,33.16,2.93,43-3,21.9-13.19,14-58.64,14-93,0-8.44-1.18-19.45,2-25q14.505-13.5,29-27c30.78-9.36,84.91,10.71,106-5,24.4-18.17,3.66-73.19,11-110C2812.51,2676.39,2827.24,2668.72,2841,2661ZM1065,2809q46.5,0.495,93,1l27,27q0.495,87.495,1,175-0.495,34.995-1,70c-2.32,5.32-7.94,6.41-12,10q-7.5,8.505-15,17-35.49.495-71,1H848c-42.478,0-84.858,5.28-104-18-9.348-11.37-6-39.78-6-60,0-37.07-.219-58.93,23-72,11.775-6.63,39.091-3,56-3H953c21.789,0,55.15,4.78,68-4,26.12-17.84,5.56-72.27,12-109C1035.5,2829.77,1054.59,2816.16,1065,2809Zm297,148h177c21.84,0,57.32-4.52,71,5,21.05,14.64,20,37.54,20,74q-0.495,22.995-1,46-15,13.995-30,28H1361c-7.58-2.02-23.37-17.99-28-24-6.65-8.63-3-27.29-3-42C1330,2993.83,1327.8,2973.59,1362,2957Zm591,0c20.11-.33,84.51-4.85,96,3,6.11,4.17,22.8,20.69,25,28q-0.495,46.995-1,94c-3.04,8.02-12.51,18.11-19,23-10.43,7.87-35.26,5-53,5-37.72,0-62.05,1.11-76-22-4.81-7.97-5.79-95.63-2-104C1926.96,2975.25,1944.75,2962.32,1953,2957Zm-738,148q45.495,0.495,91,1,7.5,8.505,15,17l12,9q0.495,34.995,1,70v173c-2.05,7.79-23.36,28.78-31,31h-90c-45.33-10.74-31-91.29-31-147V3134C1185.79,3123.79,1205.11,3110.07,1215,3105Zm443,0c44.04-.62,96.68-5.74,115,20,5.46,7.67,10.02,86.7,5,103q-13.5,13.995-27,28c-9.78,5.71-35.27,2-49,2-72.07,0-76-8.34-76-80v-44q13.5-13.995,27-28C1654.67,3105.67,1656.33,3105.33,1658,3105Zm1479,4c-38.67,17.34-27,46.21-27,98v228c0,24.32-6.18,78.95,1,96,11.11,26.4,59.19,19,96,19h241c29.01,0,75.64,5.91,92-8,18.17-15.44,10-138.01,10-176V3182c0-26.91,3.49-57.53-13-68-15.49-9.84-80.78-4-106-4Q3284.015,3109.505,3137,3109ZM0,4281V3316c0-14.86-5.28-56.4,4-63q384.962,0.495,770,1H967c18.867,0,57.96-6.12,67,4,9.19,7.57,4,45.39,4,63v960H0ZM1806,3253q198.48,0.495,397,1c29.21,0,134-5.02,147,4q9,10.005,18,20c2.51,6.22,4.07,85.49,2,95-2.02,9.25-8,10.92-14,16l-11,14c-11.02,7.71-69.71,3-89,3H1921c-29.09,0-111.37,6.79-128-5-6.26-4.44-16.94-15.84-19-24v-95C1777.06,3272.34,1797.22,3258.05,1806,3253Zm742,0q45,0.495,90,1l27,27v97c-0.48,1.26-24.21,24.97-26,26-9.18,5.26-32.06,2-45,2-44.79,0-44.13,4.05-68-18-4.24-3.91-9.65-5.11-12-11q-0.495-19.995-1-40C2513,3287.16,2512.89,3267.58,2548,3253Zm741,0c27,1.25,81.37-6.34,98,6,29.94,22.22,28.27,123.4-3,143-9.87,6.19-30.4,4-46,4-40.14,0-70.46,2.06-83-25-3.43-7.39-2.27-100.03,1-105C3264.17,3263.6,3273.74,3259.04,3289,3253ZM1363,3401q87.495,0.495,175,1c20.04,0,55.7-5.81,69,2,27.32,16.05,23,51.49,23,95v229c0,20.29,5.08,85.58-3,97-5.29,7.47-20.83,23.04-31,25-30.69,5.92-87.98-13.1-106,8-28.01,32.8,14.96,109.21-30,136-6.65,3.96-18.39,3-29,3-41.82,0-91.08-8.89-98,27q0.495,47.49,1,95c2.34,7.66,10.71,18.22,18,21q123.99,0.495,248,1c5.44,1.77,8.36,8.23,12,12q7.995,7.005,16,14c7.32,12.63,2,46.87,2,64,0,26.06-2.07,36.17-12,50H1193q-5.505-7.995-11-16V3719c0-55.83-13.59-152.46,25-168,7.28-2.93,94.97-3.42,101,0,5.93,3.36,24.19,22.03,26,29,9.52,36.73-14.13,91.2,10,111,17.05,13.98,117.15,10.28,128-5,7.4-10.43,6-28.9,6-47,0-31.01,5.27-69.88-14-82-22.06-13.88-71.37,4.67-102-3-8.37-2.1-24.01-17.57-29-24-6.59-8.49-3-26.53-3-41C1330,3436.17,1326.71,3419.93,1363,3401Zm1035,0c17.75,0.02,86.05-3.12,95,3q12,12.495,24,25v245c-16.3,56.18-120.73,1.76-144,42-7.39,12.79-4,40.91-4,60v140c0,17.32,6.24,43.01-1,56-2.28,4.09-26.52,25-32,26-37.45,6.8-96.96-15.6-112,16-11.95,25.11,5.66,68.63-2,100-1.89,7.74-22.07,28.47-29,31h-95q-4.995-5.505-10-11l-16-13c-6.93-10.86-2-72.39-2-93V3698c0-23.47-4.56-114.88,3-127q10.5-10.005,21-20,99.495-.495,199-1c17.94,0,42.79,2.91,56-3,33.2-14.85,6.04-74.5,16-114C2368,3421.08,2387.84,3406.76,2398,3401Zm-2239,4q-3.5,2.505-7,5c-6.21,9.36-2,35.43-2,51v133q0.5,271.47,1,543c11,6.89,36.626,4,54,4H834c15.776,0,37.615,2.33,50-2,5.016-12.47,3-33.02,3-52V3451c0-16.55,4.721-37.64-6-44Q520.035,3406,159,3405Zm145,144q163.983,0.495,328,1c21.6,0,101.009-4.38,107,5,7.419,8.63,3,70.18,3,90v253c0,24.91,5.863,90.98-8,98-10.046,5.34-93.125,1-114,1q-159.984-.495-320-1c-13.684-19.12-6-77.35-6-110V3657c0-32.33-5.719-80.09,3-104C299.333,3551.67,301.667,3550.33,304,3549Zm1353,296h178c20.33,0,56.74-4.99,70,4,22.36,15.16,21,39.77,21,78q-0.495,21.495-1,43c-19.86,55.45-112.69,5.33-139,36-13.99,16.3-8,57.69-8,88q-0.495,12-1,24-7.995,7.005-16,14-6,6.495-12,13h-95l-28-28q0.495-122.49,1-245C1634.46,3862.3,1646.63,3851.85,1657,3845Zm889,0c24.58-.46,85.95-5,100,5q9,10.005,18,20,0.495,49.995,1,100-9,10.995-18,22c-10.26,7.76-34.39,5-52,5-37.91,0-63.7,2.09-78-21-6.86-11.07-6.92-98.97,0-110C2523.34,3855.9,2534.84,3850.71,2546,3845Zm1331,0h174c20.85,0,56.8-5.16,72,3,6.76,3.63,18.13,15.59,21,23q0.495,48.99,1,98c-15.1,58.36-128.85-.81-147,50q-0.495,94.995-1,190c0,29.5,3.35,58.06-12,72H3684c-26.12,0-107.62,5.78-125-2q-4.5-7.005-9-14c-3.29-12.36-3.05-89.02,1-99,3.49-8.62,18.56-22.35,28-25,38.13-10.72,96.88,15.62,115-14,4.58-7.48,4-19.02,4-31,0.01-43.89-7.1-80.67,20-99,26.6-17.99,99.07,10.91,121-14,18.18-20.65-1.44-72.93,6-106C3848.9,3859.67,3863.34,3852.99,3877,3845ZM2396,3993c31.28-.56,88.22-7.11,106,8q7.5,10.005,15,20v97q-9,10.995-18,22c-10.86,7.99-36.66,5-55,5-42.02,0-58.11,1.34-76-24-4.72-6.68-5.54-89.62-2-99C2369.79,4011.97,2387.64,3999.5,2396,3993Zm592,0c49.52-.28,108.07-9.11,121,28,13.52,38.8-16.16,97.75,15,117,11.65,7.2,41.91,3,59,3h143c18.43,0,47.01-3.59,59,4,23.75,15.03,21,45.77,21,85,0,26.05-1.87,37.16-12,51H2591c-19.67,0-55.1,4.96-69-3-15.84-33.11-16.43-115.08,12-133,16.92-10.67,63.36-4,88-4h225q45.99-.495,92-1c34.32-14.4,9.77-72.53,18-114C2960.48,4008.47,2974.98,4001.28,2988,3993Zm1184,0h91q10.5,6.495,21,13v93c0,8.98,2.57,27.8-2,33q-8.505,6.495-17,13-48.99-.495-98-1c-9.18-3.6-21.59-16.57-25-26-5.05-13.95-2.42-95.45,3-104C4151.04,4004.47,4162.11,3999.02,4172,3993ZM1804,4141q120.99,0.495,242,1,6.495,7.5,13,15,6,4.005,12,8c8.26,11.85,3,48.15,3,66,0,25.89-1.77,36.42-12,50H1866c-23.36,0-64.19,6.44-83-2-10.72-21.67-14.27-77.43-8-111Q1789.505,4154.5,1804,4141Zm444,0q46.995,0.495,94,1,13.005,12.495,26,25c3.84,6.97,3.45,93.6,0,102q-4.995,6-10,12H2229q-5.505-7.995-11-16c-2.69-9.76-2.43-91.51,1-98Z"/>
</svg>
