<svg xmlns="http://www.w3.org/2000/svg" width="483.375" height="14.657" viewBox="0 0 483.375 14.657">
  <defs>
    <style>
      .cls-1 {
        fill: #394956;
        fill-rule: evenodd;
      }
    </style>
  </defs>
  <path id="TEXTO-LONGO" class="cls-1" d="M210.561,261.382c3.949-.09,5.5,1.3,6.551,4.106h-0.2c-0.522.3-2.28,0.766-2.64,0.489-2.6-4.566-7.483-1.355-6.355,4.106,0.826,4,5.565,4.471,6.453.294l2.738,0.978c-1.53,4.553-7.661,6.331-10.853,2.053-2.127-2.851-1.545-8.707.978-10.658C208.211,262,209.28,261.915,210.561,261.382Zm171.594,0c3.949-.09,5.505,1.3,6.551,4.106h-0.2c-0.522.3-2.28,0.766-2.64,0.489-2.6-4.566-7.483-1.355-6.355,4.106,0.826,4,5.565,4.471,6.453.294l2.738,0.978c-1.53,4.553-7.661,6.331-10.853,2.053-2.128-2.851-1.545-8.707.978-10.658C379.805,262,380.873,261.915,382.155,261.382Zm30.408,0c9.788-.233,10.211,12.593,2.64,14.275-6.054,1.344-9.978-4.015-8.116-9.876C408.008,262.885,409.782,262.493,412.563,261.382Zm29.136,0c9.788-.233,10.212,12.593,2.64,14.275-6.054,1.344-9.977-4.015-8.115-9.876C437.144,262.885,438.918,262.493,441.7,261.382Zm20.729,9H459.2V268.03h6.16c0.042,2.061.287,4.886-.587,6.062a19.389,19.389,0,0,1-4.5,1.662c-5.323.938-9.26-3.72-7.92-9.093a6.6,6.6,0,0,1,4.3-4.986c3.889-1.239,8.175.569,8.409,4.009h-0.2l-2.542.489c-1.35-3.606-6.395-2.612-7.138.879-1.137,5.35,3.582,7.66,7.236,5.085v-1.76Zm87.9-9c9.788-.233,10.211,12.593,2.64,14.275-6.054,1.344-9.978-4.015-8.116-9.876C545.772,262.885,547.546,262.493,550.327,261.382Zm81.25,4.5c-0.11-2.41-3.137-2.4-4.693-1.369q-0.1.441-.2,0.88c1.639,2.856,9.628.929,8.116,7.04-0.864,3.49-6.9,4.42-9.778,2.053-0.928-.763-1.19-2.083-1.564-3.422v-0.1l2.835-.293c0.114,2.6,4.485,3.819,5.574,1.369,0.83-1.9-1.553-2.064-2.934-2.444-2.352-.649-5.8-1.728-4.888-5.182,0.839-3.185,6.426-4.023,9.093-1.858,0.9,0.733,1.021,1.9,1.368,3.226Zm-453.086-4.3h9.582v2.347h-6.747v3.324H187.1V269.6h-5.769v5.964h-2.835V261.577Zm15.742,0h3.128l5.476,13.982-3.129-.1-1.075-3.031h-5.671l-1.076,3.129h-3.031Q191.543,268.569,194.233,261.577Zm26.3,0h2.835c-0.086,4.058-1.51,12.847,3.52,11.831,3.12-.631,2.13-8.107,2.054-11.831h2.835c0.093,5.845,1.13,13-3.715,14.08C219.1,277.661,220.427,268.889,220.534,261.577Zm15.155,0h2.835v11.635h7.04v2.347h-9.875V261.577Zm12.906,0c2.637-.042,6.405-0.439,8.409.391,3.647,1.511,4.434,8.527,1.857,11.831-1.724,2.21-6.3,1.817-10.266,1.76V261.577Zm19.164,0h3.129l5.475,13.982-3.129-.1-1.075-3.031h-5.671l-1.076,3.129h-3.031Q265.071,268.569,267.759,261.577Zm11.048,0c2.638-.042,6.4-0.439,8.409.391,3.647,1.511,4.434,8.527,1.858,11.831-1.724,2.21-6.3,1.817-10.267,1.76V261.577Zm15.155,0h10.462v2.347H296.9v3.128h6.942V269.4H296.9v3.813h7.822v2.347H293.962V261.577Zm20.435,0c2.638-.042,6.405-0.439,8.409.391,3.647,1.511,4.434,8.527,1.858,11.831-1.724,2.21-6.305,1.817-10.267,1.76V261.577Zm15.155,0h10.462v2.347h-7.528v3.128h6.942V269.4h-6.942v3.813h7.822v2.347H329.552V261.577Zm19.457,0h11.147v2.347h-4.107v11.635h-2.835V263.924h-4.2v-2.347Zm13.982,0h10.462v2.347h-7.529v3.128h6.942V269.4h-6.942v3.813h7.822v2.347H362.991V261.577Zm29.235,0a8.209,8.209,0,0,1,2.933.2l5.377,8.995h0.1v-9.191h2.64v13.982h-2.835l-5.476-9h-0.1v9h-2.64V261.577Zm31.385,0h2.836v11.635h7.039v2.347h-9.875V261.577Zm45.27,0h2.835v13.982h-2.835V261.577Zm10.364,0h3.129l5.475,13.982-3.129-.1-1.075-3.031h-5.671l-1.076,3.129h-3.031Q476.557,268.569,479.245,261.577Zm16.817,0c2.637-.042,6.4-0.439,8.409.391,3.647,1.511,4.434,8.527,1.857,11.831-1.724,2.21-6.3,1.817-10.266,1.76V261.577Zm19.164,0h3.129q2.736,6.99,5.475,13.982l-3.129-.1-1.075-3.031h-5.671l-1.076,3.129h-3.031Q512.538,268.569,515.226,261.577Zm16.524,0h10.266c0.049,4.017-5.79,8.726-7.724,11.635h8.017v2.347H530.87c-0.06-4.588,5.148-8.669,7.333-11.635H531.75v-2.347Zm29.527,0a8.215,8.215,0,0,1,2.934.2l5.377,8.995h0.1v-9.191h2.64v13.982h-2.835l-5.476-9h-0.1v9h-2.64V261.577Zm19.066,0h3.129l5.476,13.982-3.129-.1q-0.538-1.515-1.076-3.031h-5.671L578,275.559h-3.031Zm16.915,0h2.836v11.635h7.04v2.347h-9.876V261.577Zm12.809,0h10.462v2.347H613v3.128h6.942V269.4H613v3.813h7.822v2.347H610.067V261.577Zm27.181,0h11.146v2.347h-4.106v11.635h-2.836V263.924h-4.2v-2.347Zm13.884,0h10.462v2.347h-7.529v3.128h6.942V269.4h-6.942v3.813h7.822v2.347H651.132V261.577Zm-238.178,2.249c-1.48.659-2.5,0.964-3.031,2.542-1.133,3.383.624,7.718,4.3,6.942C418.713,272.363,418.889,263.661,412.954,263.826Zm29.137,0c-1.48.659-2.5,0.964-3.031,2.542-1.133,3.383.623,7.718,4.3,6.942C447.85,272.363,448.026,263.661,442.091,263.826Zm108.627,0c-1.48.659-2.5,0.964-3.031,2.542-1.133,3.383.624,7.718,4.3,6.942C556.477,272.363,556.653,263.661,550.718,263.826Zm-299.287.1v9.288c2.056,0.061,4.426.184,5.279-.977,0.643-.874.5-1.93,0.685-3.325C257.955,264.681,255.672,263.8,251.431,263.924Zm30.212,0v9.288c2.056,0.061,4.426.184,5.28-.977,0.642-.874.5-1.93,0.684-3.325C288.167,264.681,285.884,263.8,281.643,263.924Zm35.59,0v9.288c2.056,0.061,4.426.184,5.28-.977,0.642-.874.5-1.93,0.684-3.325C323.757,264.681,321.474,263.8,317.233,263.924Zm181.664,0v9.288c2.057,0.061,4.427.184,5.28-.977,0.642-.874.5-1.93,0.685-3.325C505.422,264.681,503.139,263.8,498.9,263.924Zm-303.2.977-1.857,5.182h3.911Q196.726,267.492,195.7,264.9Zm73.527,0q-0.93,2.592-1.858,5.182h3.911Q270.251,267.492,269.226,264.9Zm211.485,0-1.857,5.182h3.911Q481.737,267.492,480.711,264.9Zm35.981,0-1.857,5.182h3.911Q517.719,267.492,516.692,264.9Zm65.118,0q-0.928,2.592-1.858,5.182h3.911Q582.837,267.492,581.81,264.9Z" transform="translate(-178.5 -261.281)"/>
</svg>
