<svg xmlns="http://www.w3.org/2000/svg" width="333.969" height="78.219" viewBox="0 0 333.969 78.219">
  <defs>
    <style>
      .cls-1 {
        fill: #394956;
        fill-rule: evenodd;
      }
    </style>
  </defs>
  <path id="fatec" class="cls-1" d="M219.527,176.432V163.4h-52.5v76.753h15.387V207.567h32.041V194.534H182.418v-18.1h37.109Zm15.93,22.627,13.215,2.354a12.592,12.592,0,0,1,3.258-5.25,9.886,9.886,0,0,1,4.525-1.81s1.764-.051,3.078,0a9.874,9.874,0,0,1,1.629.181s3.83-.021,5.793,2.353c1.929,2.333,1.448,6.879,1.448,6.879a50.482,50.482,0,0,1-7.965,2.353c-6.1,1.352-12.625,1.829-19.912,5.793-6.053,3.292-6.517,12.309-6.517,12.309s-0.935,5.94,4.344,12.129c3.771,4.419,11.948,5.068,11.948,5.068a25.551,25.551,0,0,0,10.318-1.267,29.421,29.421,0,0,0,8.87-5.974l1.991,5.793h14.482a24.678,24.678,0,0,1-2.716-7.784,58.652,58.652,0,0,1-.543-10.318v-21.18a20.87,20.87,0,0,0-1.81-8.87,14.035,14.035,0,0,0-4.887-5.249,20.437,20.437,0,0,0-5.612-2.353,49.209,49.209,0,0,0-8.508-1.087s-10.554-.829-17.378,3.078c-6.277,3.593-8.87,11.947-8.87,11.947ZM268.4,214.627v6.336a14.477,14.477,0,0,1-2.535,6.335,12.059,12.059,0,0,1-5.249,3.259,14.6,14.6,0,0,1-5.069.724,8.265,8.265,0,0,1-3.982-1.629,10.153,10.153,0,0,1-2.534-3.259,9.015,9.015,0,0,1-.543-3.62,6.542,6.542,0,0,1,3.439-4.707c2.851-1.384,7.285-2.286,10.5-3.077,3.124-.769,4.526-1.267,4.526-1.267l1.448-.543v1.448Zm59.737,13.4,1.267,11.223a14.339,14.339,0,0,1-3.621,1.448,43.025,43.025,0,0,1-5.792.905s-7.2.508-11.767-2.534a9.766,9.766,0,0,1-3.982-6.155,13.327,13.327,0,0,1-.362-1.81c-0.213-1.706-.362-3.983-0.362-3.983V196.344h-6.879V184.578h6.879V173.535l14.662-8.689v19.732h9.957v11.766h-9.957v28.782s-0.042,2.311,1.087,3.44,3.439,1.086,3.439,1.086,2.123-.424,3.62-0.9c0.822-.265,1.449-0.543,1.449-0.543Zm47.789-5.431,14.482,2.715a22.652,22.652,0,0,1-3.259,6.7,31.859,31.859,0,0,1-5.973,5.793,29.26,29.26,0,0,1-5.431,2.534,26.138,26.138,0,0,1-5.793,1.086,41.382,41.382,0,0,1-9.956-.362,33.727,33.727,0,0,1-8.327-2.9,27.387,27.387,0,0,1-7.784-7.784,35.549,35.549,0,0,1-3.982-11.4s-0.31-3.334-.362-6.336a39.677,39.677,0,0,1,.181-4.164s0.507-8.377,4.887-14.662a24.3,24.3,0,0,1,8.508-7.784,25.9,25.9,0,0,1,5.793-2.172,34.759,34.759,0,0,1,6.517-.725s7.881,0.153,13.757,3.621a20.692,20.692,0,0,1,7.422,7.6,27.2,27.2,0,0,1,3.44,8.689,79.828,79.828,0,0,1,1.267,13.576H354.569a23.148,23.148,0,0,0,1.629,7.6,12,12,0,0,0,3.982,4.526,13.67,13.67,0,0,0,5.069,1.81,14.293,14.293,0,0,0,5.43-.724,7.411,7.411,0,0,0,3.44-2.535,14.891,14.891,0,0,0,1.629-3.8Zm0.905-15.025H354.75a25.085,25.085,0,0,1,1.448-7.241,8.971,8.971,0,0,1,3.077-3.62,11.932,11.932,0,0,1,3.439-1.81,15.337,15.337,0,0,1,3.983-.543,12.4,12.4,0,0,1,5.069,1.629,10.66,10.66,0,0,1,3.258,3.982,11.448,11.448,0,0,1,1.267,3.078,24.172,24.172,0,0,1,.543,4.163v0.362Zm65.892-4.163,14.481-2.535a36.968,36.968,0,0,0-4.344-9.232,20.919,20.919,0,0,0-5.793-5.249,22.426,22.426,0,0,0-5.793-2.353,43.55,43.55,0,0,0-8.327-.906,39.078,39.078,0,0,0-8.145.906,32.073,32.073,0,0,0-7.6,3.077,25.35,25.35,0,0,0-9.594,12.49,26.2,26.2,0,0,0-1.268,4.526,62.09,62.09,0,0,0-.724,6.7,76.925,76.925,0,0,0,.543,9.232,26.858,26.858,0,0,0,6.7,13.938,30.579,30.579,0,0,0,8.87,5.793,18.86,18.86,0,0,0,5.612,1.448,60.417,60.417,0,0,0,7.784.181,29.723,29.723,0,0,0,9.051-1.81,23.128,23.128,0,0,0,6.879-4.707,30.931,30.931,0,0,0,4.525-6.516,29.341,29.341,0,0,0,2.172-6.879l-14.3-2.534s-0.8,4.585-2.535,7.059a8.384,8.384,0,0,1-4.706,3.259,14.735,14.735,0,0,1-3.983.362,17.314,17.314,0,0,1-4.163-.9,12.9,12.9,0,0,1-4.888-4.164,16.783,16.783,0,0,1-1.991-6.336,97.656,97.656,0,0,1-.362-10.137,20.992,20.992,0,0,1,.9-5.43,14.485,14.485,0,0,1,3.259-5.25,9.173,9.173,0,0,1,3.982-2.172,14.168,14.168,0,0,1,4.163-.543,15.04,15.04,0,0,1,4.164.905,9.32,9.32,0,0,1,3.62,2.9,14.531,14.531,0,0,1,1.811,4.526V203.4Zm29.325,1.629V219.7h28.963V205.214Z" transform="translate(-167.031 -163.406)"/>
</svg>
